solid OpenSCAD_Model
  facet normal 0.58317 0.3499 -0.733132
    outer loop
      vertex 2.5 -15 -0.0499916
      vertex 0 -3.49991 3.44999
      vertex 4.49997 -10.9999 3.44999
    endloop
  endfacet
  facet normal 0.678846 0.407305 -0.610959
    outer loop
      vertex 4.49997 -10.9999 3.44999
      vertex 0 -3.49991 3.44999
      vertex 4.19998 -5.99991 6.45
    endloop
  endfacet
  facet normal 0.948686 0.316221 0
    outer loop
      vertex 8.49991 -17 6.55
      vertex 6.49994 -10.9999 6.45
      vertex 6.49994 -10.9999 6.55
    endloop
  endfacet
  facet normal 0.948686 0.316221 0
    outer loop
      vertex 6.49994 -10.9999 6.45
      vertex 8.49991 -17 6.55
      vertex 8.49991 -17 6.45
    endloop
  endfacet
  facet normal -0 0 1
    outer loop
      vertex -8.49991 -17 6.55
      vertex -7.5 -18 6.55
      vertex -6.49994 -10.9999 6.55
    endloop
  endfacet
  facet normal 0 0 1
    outer loop
      vertex -7.99999 -18 6.55
      vertex -8.49991 -17 6.55
      vertex -7.99999 -19 6.55
    endloop
  endfacet
  facet normal 0 0 1
    outer loop
      vertex -7.5 -18 6.55
      vertex -8.49991 -17 6.55
      vertex -7.99999 -18 6.55
    endloop
  endfacet
  facet normal 0 0 1
    outer loop
      vertex 0 -6.0402 6.55
      vertex 4.19998 -5.99991 6.55
      vertex 0 0 6.55
    endloop
  endfacet
  facet normal 0 0 1
    outer loop
      vertex 4.19998 -5.99991 6.55
      vertex 0 -6.0402 6.55
      vertex 1.97989 -8.0201 6.55
    endloop
  endfacet
  facet normal -0 0 1
    outer loop
      vertex -4.19998 -5.99991 6.55
      vertex 0 -6.0402 6.55
      vertex 0 0 6.55
    endloop
  endfacet
  facet normal 0 0 1
    outer loop
      vertex 0 -6.0402 6.55
      vertex -4.19998 -5.99991 6.55
      vertex -1.97989 -8.0201 6.55
    endloop
  endfacet
  facet normal 0 0 1
    outer loop
      vertex 8.49991 -17 6.55
      vertex 7.99999 -18 6.55
      vertex 8.49991 -20 6.55
    endloop
  endfacet
  facet normal 0 0 1
    outer loop
      vertex 8.49991 -17 6.55
      vertex 7.5 -18 6.55
      vertex 7.99999 -18 6.55
    endloop
  endfacet
  facet normal 0 0 1
    outer loop
      vertex 0 -10 6.55
      vertex 7.5 -18 6.55
      vertex 6.49994 -10.9999 6.55
    endloop
  endfacet
  facet normal 0 0 1
    outer loop
      vertex 6.49994 -10.9999 6.55
      vertex 7.5 -18 6.55
      vertex 8.49991 -17 6.55
    endloop
  endfacet
  facet normal -0 0 1
    outer loop
      vertex 7.99999 -19 6.55
      vertex 8.49991 -20 6.55
      vertex 7.99999 -18 6.55
    endloop
  endfacet
  facet normal -0 0 1
    outer loop
      vertex 7.5 -19 6.55
      vertex 8.49991 -20 6.55
      vertex 7.99999 -19 6.55
    endloop
  endfacet
  facet normal -0 0 1
    outer loop
      vertex 1.97989 -8.0201 6.55
      vertex 6.49994 -10.9999 6.55
      vertex 4.19998 -5.99991 6.55
    endloop
  endfacet
  facet normal -0 0 1
    outer loop
      vertex 0 -10 6.55
      vertex 6.49994 -10.9999 6.55
      vertex 1.97989 -8.0201 6.55
    endloop
  endfacet
  facet normal 0 0 1
    outer loop
      vertex -7.5 -18 6.55
      vertex 7.5 -18 6.55
      vertex 0 -10 6.55
    endloop
  endfacet
  facet normal 0 0 1
    outer loop
      vertex -6.49994 -10.9999 6.55
      vertex 0 -10 6.55
      vertex -1.97989 -8.0201 6.55
    endloop
  endfacet
  facet normal 0 0 1
    outer loop
      vertex -6.49994 -10.9999 6.55
      vertex -1.97989 -8.0201 6.55
      vertex -4.19998 -5.99991 6.55
    endloop
  endfacet
  facet normal 0 0 1
    outer loop
      vertex 0 -10 6.55
      vertex -6.49994 -10.9999 6.55
      vertex -7.5 -18 6.55
    endloop
  endfacet
  facet normal 0 0 1
    outer loop
      vertex 7.5 -18 6.55
      vertex -7.5 -18 6.55
      vertex 7.5 -19 6.55
    endloop
  endfacet
  facet normal 0 0 1
    outer loop
      vertex -7.5 -19 6.55
      vertex 7.5 -19 6.55
      vertex -7.5 -18 6.55
    endloop
  endfacet
  facet normal 0 0 1
    outer loop
      vertex 7.5 -19 6.55
      vertex -7.5 -19 6.55
      vertex 8.49991 -20 6.55
    endloop
  endfacet
  facet normal 0 0 1
    outer loop
      vertex -8.49991 -20 6.55
      vertex -7.5 -19 6.55
      vertex -7.99999 -19 6.55
    endloop
  endfacet
  facet normal 0 0 1
    outer loop
      vertex -7.5 -19 6.55
      vertex -8.49991 -20 6.55
      vertex 8.49991 -20 6.55
    endloop
  endfacet
  facet normal 0 0 1
    outer loop
      vertex -8.49991 -20 6.55
      vertex -7.99999 -19 6.55
      vertex -8.49991 -17 6.55
    endloop
  endfacet
  facet normal -0.874172 0.291383 -0.388483
    outer loop
      vertex -7.5 -17.9999 3.44999
      vertex -8.49991 -17 6.45
      vertex -6.49994 -10.9999 6.45
    endloop
  endfacet
  facet normal 0.777082 0.357451 -0.518046
    outer loop
      vertex 4.49997 -10.9999 3.44999
      vertex 4.19998 -5.99991 6.45
      vertex 6.49994 -10.9999 6.45
    endloop
  endfacet
  facet normal -0.678846 0.407305 -0.610959
    outer loop
      vertex 0 -3.49991 3.44999
      vertex -4.49997 -10.9999 3.44999
      vertex -4.19998 -5.99991 6.45
    endloop
  endfacet
  facet normal -0.777082 0.357451 -0.518046
    outer loop
      vertex -4.49997 -10.9999 3.44999
      vertex -6.49994 -10.9999 6.45
      vertex -4.19998 -5.99991 6.45
    endloop
  endfacet
  facet normal -0.415577 0.346311 -0.84105
    outer loop
      vertex 0 -12 -0.0499916
      vertex -2.5 -15 -0.0499916
      vertex 0 -3.49991 3.44999
    endloop
  endfacet
  facet normal 0.415577 0.346311 -0.84105
    outer loop
      vertex 2.5 -15 -0.0499916
      vertex 0 -12 -0.0499916
      vertex 0 -3.49991 3.44999
    endloop
  endfacet
  facet normal 0.759252 0 -0.650797
    outer loop
      vertex 7.5 -20 3.44999
      vertex 4.49997 -18.9999 -0.0499916
      vertex 7.5 -17.9999 3.44999
    endloop
  endfacet
  facet normal 0.759252 0 -0.650797
    outer loop
      vertex 4.49997 -18.9999 -0.0499916
      vertex 7.5 -20 3.44999
      vertex 4.49997 -20 -0.0499916
    endloop
  endfacet
  facet normal 0.683056 0.292742 -0.669131
    outer loop
      vertex 7.5 -17.9999 3.44999
      vertex 4.49997 -18.9999 -0.0499916
      vertex 4.49997 -10.9999 3.44999
    endloop
  endfacet
  facet normal 0 0 -1
    outer loop
      vertex -4.49997 -18.9999 -0.0499916
      vertex 4.49997 -18.9999 -0.0499916
      vertex 4.49997 -20 -0.0499916
    endloop
  endfacet
  facet normal 0 0 -1
    outer loop
      vertex 4.49997 -18.9999 -0.0499916
      vertex -4.49997 -18.9999 -0.0499916
      vertex 2.5 -15 -0.0499916
    endloop
  endfacet
  facet normal 0 0 -1
    outer loop
      vertex 2.5 -15 -0.0499916
      vertex -2.5 -15 -0.0499916
      vertex 0 -12 -0.0499916
    endloop
  endfacet
  facet normal 0 0 -1
    outer loop
      vertex -4.49997 -18.9999 -0.0499916
      vertex 4.49997 -20 -0.0499916
      vertex -4.49997 -20 -0.0499916
    endloop
  endfacet
  facet normal -0 0 -1
    outer loop
      vertex 2.5 -15 -0.0499916
      vertex -4.49997 -18.9999 -0.0499916
      vertex -2.5 -15 -0.0499916
    endloop
  endfacet
  facet normal -1 0 0
    outer loop
      vertex -8.49991 -20 6.45
      vertex -8.49991 -17 6.55
      vertex -8.49991 -17 6.45
    endloop
  endfacet
  facet normal -1 -0 0
    outer loop
      vertex -8.49991 -17 6.55
      vertex -8.49991 -20 6.45
      vertex -8.49991 -20 6.55
    endloop
  endfacet
  facet normal -0.783715 0.335883 -0.522468
    outer loop
      vertex -4.49997 -10.9999 3.44999
      vertex -7.5 -17.9999 3.44999
      vertex -6.49994 -10.9999 6.45
    endloop
  endfacet
  facet normal -0.683056 0.292742 -0.669131
    outer loop
      vertex -4.49997 -18.9999 -0.0499916
      vertex -7.5 -17.9999 3.44999
      vertex -4.49997 -10.9999 3.44999
    endloop
  endfacet
  facet normal -0.819229 0.573467 0
    outer loop
      vertex -4.19998 -5.99991 6.45
      vertex 0 0 6.55
      vertex 0 0 6.45
    endloop
  endfacet
  facet normal -0.819229 0.573467 0
    outer loop
      vertex 0 0 6.55
      vertex -4.19998 -5.99991 6.45
      vertex -4.19998 -5.99991 6.55
    endloop
  endfacet
  facet normal -0.625471 0.312736 -0.71483
    outer loop
      vertex -2.5 -15 -0.0499916
      vertex -4.49997 -18.9999 -0.0499916
      vertex -4.49997 -10.9999 3.44999
    endloop
  endfacet
  facet normal -0.58317 0.3499 -0.733132
    outer loop
      vertex -2.5 -15 -0.0499916
      vertex -4.49997 -10.9999 3.44999
      vertex 0 -3.49991 3.44999
    endloop
  endfacet
  facet normal 0.908493 0.417899 0
    outer loop
      vertex 6.49994 -10.9999 6.55
      vertex 4.19998 -5.99991 6.45
      vertex 4.19998 -5.99991 6.55
    endloop
  endfacet
  facet normal 0.908493 0.417899 0
    outer loop
      vertex 4.19998 -5.99991 6.45
      vertex 6.49994 -10.9999 6.55
      vertex 6.49994 -10.9999 6.45
    endloop
  endfacet
  facet normal 0.625471 0.312736 -0.71483
    outer loop
      vertex 4.49997 -18.9999 -0.0499916
      vertex 2.5 -15 -0.0499916
      vertex 4.49997 -10.9999 3.44999
    endloop
  endfacet
  facet normal -0.948686 0.316221 0
    outer loop
      vertex -8.49991 -17 6.45
      vertex -6.49994 -10.9999 6.55
      vertex -6.49994 -10.9999 6.45
    endloop
  endfacet
  facet normal -0.948686 0.316221 0
    outer loop
      vertex -6.49994 -10.9999 6.55
      vertex -8.49991 -17 6.45
      vertex -8.49991 -17 6.55
    endloop
  endfacet
  facet normal -0.680897 0.476633 -0.556057
    outer loop
      vertex 0 -3.49991 3.44999
      vertex -4.19998 -5.99991 6.45
      vertex 0 0 6.45
    endloop
  endfacet
  facet normal 0.874172 0.291383 -0.388483
    outer loop
      vertex 7.5 -17.9999 3.44999
      vertex 6.49994 -10.9999 6.45
      vertex 8.49991 -17 6.45
    endloop
  endfacet
  facet normal 0.783715 0.335883 -0.522468
    outer loop
      vertex 7.5 -17.9999 3.44999
      vertex 4.49997 -10.9999 3.44999
      vertex 6.49994 -10.9999 6.45
    endloop
  endfacet
  facet normal 0.948692 0 -0.316202
    outer loop
      vertex 8.49991 -20 6.45
      vertex 7.5 -17.9999 3.44999
      vertex 8.49991 -17 6.45
    endloop
  endfacet
  facet normal 0.948692 0 -0.316202
    outer loop
      vertex 7.5 -17.9999 3.44999
      vertex 8.49991 -20 6.45
      vertex 7.5 -20 3.44999
    endloop
  endfacet
  facet normal 1 -0 0
    outer loop
      vertex 8.49991 -20 6.55
      vertex 8.49991 -17 6.45
      vertex 8.49991 -17 6.55
    endloop
  endfacet
  facet normal 1 0 0
    outer loop
      vertex 8.49991 -17 6.45
      vertex 8.49991 -20 6.55
      vertex 8.49991 -20 6.45
    endloop
  endfacet
  facet normal 0 -1 0
    outer loop
      vertex -7.5 -20 3.44999
      vertex -8.49991 -20 6.55
      vertex -8.49991 -20 6.45
    endloop
  endfacet
  facet normal 0 -1 0
    outer loop
      vertex -8.49991 -20 6.55
      vertex -7.5 -20 3.44999
      vertex 8.49991 -20 6.55
    endloop
  endfacet
  facet normal 0 -1 0
    outer loop
      vertex 7.5 -20 3.44999
      vertex 8.49991 -20 6.55
      vertex -7.5 -20 3.44999
    endloop
  endfacet
  facet normal 0 -1 -0
    outer loop
      vertex 8.49991 -20 6.55
      vertex 7.5 -20 3.44999
      vertex 8.49991 -20 6.45
    endloop
  endfacet
  facet normal 0 -1 0
    outer loop
      vertex -4.49997 -20 -0.0499916
      vertex 7.5 -20 3.44999
      vertex -7.5 -20 3.44999
    endloop
  endfacet
  facet normal 0 -1 0
    outer loop
      vertex 7.5 -20 3.44999
      vertex -4.49997 -20 -0.0499916
      vertex 4.49997 -20 -0.0499916
    endloop
  endfacet
  facet normal -0.908493 0.417899 0
    outer loop
      vertex -6.49994 -10.9999 6.45
      vertex -4.19998 -5.99991 6.55
      vertex -4.19998 -5.99991 6.45
    endloop
  endfacet
  facet normal -0.908493 0.417899 0
    outer loop
      vertex -4.19998 -5.99991 6.55
      vertex -6.49994 -10.9999 6.45
      vertex -6.49994 -10.9999 6.55
    endloop
  endfacet
  facet normal 0.819229 0.573467 0
    outer loop
      vertex 4.19998 -5.99991 6.55
      vertex 0 0 6.45
      vertex 0 0 6.55
    endloop
  endfacet
  facet normal 0.819229 0.573467 0
    outer loop
      vertex 0 0 6.45
      vertex 4.19998 -5.99991 6.55
      vertex 4.19998 -5.99991 6.45
    endloop
  endfacet
  facet normal 0.680897 0.476633 -0.556057
    outer loop
      vertex 4.19998 -5.99991 6.45
      vertex 0 -3.49991 3.44999
      vertex 0 0 6.45
    endloop
  endfacet
  facet normal -0.948692 0 -0.316202
    outer loop
      vertex -8.49991 -20 6.45
      vertex -7.5 -17.9999 3.44999
      vertex -7.5 -20 3.44999
    endloop
  endfacet
  facet normal -0.948692 0 -0.316202
    outer loop
      vertex -7.5 -17.9999 3.44999
      vertex -8.49991 -20 6.45
      vertex -8.49991 -17 6.45
    endloop
  endfacet
  facet normal -0.759252 0 -0.650797
    outer loop
      vertex -7.5 -20 3.44999
      vertex -4.49997 -18.9999 -0.0499916
      vertex -4.49997 -20 -0.0499916
    endloop
  endfacet
  facet normal -0.759252 0 -0.650797
    outer loop
      vertex -4.49997 -18.9999 -0.0499916
      vertex -7.5 -20 3.44999
      vertex -7.5 -17.9999 3.44999
    endloop
  endfacet
  facet normal -0.707107 -0.707107 0
    outer loop
      vertex 1.97989 -8.0201 6.2
      vertex 0 -6.0402 6.55
      vertex 0 -6.0402 6.2
    endloop
  endfacet
  facet normal -0.707107 -0.707107 0
    outer loop
      vertex 0 -6.0402 6.55
      vertex 1.97989 -8.0201 6.2
      vertex 1.97989 -8.0201 6.55
    endloop
  endfacet
  facet normal 0.707108 0.707105 0
    outer loop
      vertex 0 -10 6.55
      vertex -1.97989 -8.0201 6.2
      vertex -1.97989 -8.0201 6.55
    endloop
  endfacet
  facet normal 0.707108 0.707105 0
    outer loop
      vertex -1.97989 -8.0201 6.2
      vertex 0 -10 6.55
      vertex 0 -10 6.2
    endloop
  endfacet
  facet normal 0 0 1
    outer loop
      vertex 0 -6.0402 6.2
      vertex 0 -10 6.2
      vertex 1.97989 -8.0201 6.2
    endloop
  endfacet
  facet normal 0 -0 1
    outer loop
      vertex 0 -10 6.2
      vertex 0 -6.0402 6.2
      vertex -1.97989 -8.0201 6.2
    endloop
  endfacet
  facet normal -0.707108 0.707105 0
    outer loop
      vertex 0 -10 6.2
      vertex 1.97989 -8.0201 6.55
      vertex 1.97989 -8.0201 6.2
    endloop
  endfacet
  facet normal -0.707108 0.707105 0
    outer loop
      vertex 1.97989 -8.0201 6.55
      vertex 0 -10 6.2
      vertex 0 -10 6.55
    endloop
  endfacet
  facet normal 0.707107 -0.707107 0
    outer loop
      vertex -1.97989 -8.0201 6.55
      vertex 0 -6.0402 6.2
      vertex 0 -6.0402 6.55
    endloop
  endfacet
  facet normal 0.707107 -0.707107 0
    outer loop
      vertex 0 -6.0402 6.2
      vertex -1.97989 -8.0201 6.55
      vertex -1.97989 -8.0201 6.2
    endloop
  endfacet
  facet normal 1 -0 0
    outer loop
      vertex -7.99999 -19 6.55
      vertex -7.99999 -18 5.49999
      vertex -7.99999 -18 6.55
    endloop
  endfacet
  facet normal 1 0 0
    outer loop
      vertex -7.99999 -18 5.49999
      vertex -7.99999 -19 6.55
      vertex -7.99999 -19 5.49999
    endloop
  endfacet
  facet normal -1 0 0
    outer loop
      vertex -7.5 -19 5.49999
      vertex -7.5 -18 6.55
      vertex -7.5 -18 5.49999
    endloop
  endfacet
  facet normal -1 -0 0
    outer loop
      vertex -7.5 -18 6.55
      vertex -7.5 -19 5.49999
      vertex -7.5 -19 6.55
    endloop
  endfacet
  facet normal -0 0 1
    outer loop
      vertex -7.99999 -18 5.49999
      vertex -7.5 -19 5.49999
      vertex -7.5 -18 5.49999
    endloop
  endfacet
  facet normal 0 0 1
    outer loop
      vertex -7.5 -19 5.49999
      vertex -7.99999 -18 5.49999
      vertex -7.99999 -19 5.49999
    endloop
  endfacet
  facet normal 0 1 -0
    outer loop
      vertex -7.5 -19 5.49999
      vertex -7.99999 -19 6.55
      vertex -7.5 -19 6.55
    endloop
  endfacet
  facet normal 0 1 0
    outer loop
      vertex -7.99999 -19 6.55
      vertex -7.5 -19 5.49999
      vertex -7.99999 -19 5.49999
    endloop
  endfacet
  facet normal 0 -1 0
    outer loop
      vertex -7.99999 -18 5.49999
      vertex -7.5 -18 6.55
      vertex -7.99999 -18 6.55
    endloop
  endfacet
  facet normal 0 -1 -0
    outer loop
      vertex -7.5 -18 6.55
      vertex -7.99999 -18 5.49999
      vertex -7.5 -18 5.49999
    endloop
  endfacet
  facet normal 1 -0 0
    outer loop
      vertex 7.5 -19 6.55
      vertex 7.5 -18 5.49999
      vertex 7.5 -18 6.55
    endloop
  endfacet
  facet normal 1 0 0
    outer loop
      vertex 7.5 -18 5.49999
      vertex 7.5 -19 6.55
      vertex 7.5 -19 5.49999
    endloop
  endfacet
  facet normal -1 0 0
    outer loop
      vertex 7.99999 -19 5.49999
      vertex 7.99999 -18 6.55
      vertex 7.99999 -18 5.49999
    endloop
  endfacet
  facet normal -1 -0 0
    outer loop
      vertex 7.99999 -18 6.55
      vertex 7.99999 -19 5.49999
      vertex 7.99999 -19 6.55
    endloop
  endfacet
  facet normal -0 0 1
    outer loop
      vertex 7.5 -18 5.49999
      vertex 7.99999 -19 5.49999
      vertex 7.99999 -18 5.49999
    endloop
  endfacet
  facet normal 0 0 1
    outer loop
      vertex 7.99999 -19 5.49999
      vertex 7.5 -18 5.49999
      vertex 7.5 -19 5.49999
    endloop
  endfacet
  facet normal 0 1 -0
    outer loop
      vertex 7.99999 -19 5.49999
      vertex 7.5 -19 6.55
      vertex 7.99999 -19 6.55
    endloop
  endfacet
  facet normal 0 1 0
    outer loop
      vertex 7.5 -19 6.55
      vertex 7.99999 -19 5.49999
      vertex 7.5 -19 5.49999
    endloop
  endfacet
  facet normal 0 -1 0
    outer loop
      vertex 7.5 -18 5.49999
      vertex 7.99999 -18 6.55
      vertex 7.5 -18 6.55
    endloop
  endfacet
  facet normal 0 -1 -0
    outer loop
      vertex 7.99999 -18 6.55
      vertex 7.5 -18 5.49999
      vertex 7.99999 -18 5.49999
    endloop
  endfacet
endsolid OpenSCAD_Model
