solid OpenSCAD_Model
  facet normal 0.58317 0.3499 -0.733132
    outer loop
      vertex 2.5 -15 -0.0499916
      vertex 0 -3.49991 3.44999
      vertex 4.49997 -10.9999 3.44999
    endloop
  endfacet
  facet normal 0.678846 0.407305 -0.610959
    outer loop
      vertex 4.21498 -6.24991 6.29999
      vertex 0 -3.49991 3.44999
      vertex 3.98998 -5.87491 6.29999
    endloop
  endfacet
  facet normal 0.678846 0.407305 -0.610959
    outer loop
      vertex 0 -3.49991 3.44999
      vertex 4.21498 -6.24991 6.29999
      vertex 4.49997 -10.9999 3.44999
    endloop
  endfacet
  facet normal 0.948686 0.316221 0
    outer loop
      vertex 8.49991 -17 6.55
      vertex 6.49994 -10.9999 6.45
      vertex 6.49994 -10.9999 6.55
    endloop
  endfacet
  facet normal 0.948686 0.316221 0
    outer loop
      vertex 6.49994 -10.9999 6.45
      vertex 8.49991 -17 6.55
      vertex 8.49991 -17 6.45
    endloop
  endfacet
  facet normal 0 0 1
    outer loop
      vertex 5.99999 -4 6.55
      vertex 5.58 -9 6.55
      vertex 5.99999 -9 6.55
    endloop
  endfacet
  facet normal 0 -0 1
    outer loop
      vertex 5.58 -9 6.55
      vertex 5.99999 -4 6.55
      vertex 2.80003 -4 6.55
    endloop
  endfacet
  facet normal -0 0 1
    outer loop
      vertex -8.49991 -17 6.55
      vertex -7.5 -18 6.55
      vertex -6.49994 -10.9999 6.55
    endloop
  endfacet
  facet normal 0 0 1
    outer loop
      vertex -7.99999 -18 6.55
      vertex -8.49991 -17 6.55
      vertex -7.99999 -19 6.55
    endloop
  endfacet
  facet normal 0 0 1
    outer loop
      vertex -7.5 -18 6.55
      vertex -8.49991 -17 6.55
      vertex -7.99999 -18 6.55
    endloop
  endfacet
  facet normal -0 0 1
    outer loop
      vertex -5.99999 -4 6.55
      vertex -5.58 -9 6.55
      vertex -2.80003 -4 6.55
    endloop
  endfacet
  facet normal 0 0 1
    outer loop
      vertex -5.58 -9 6.55
      vertex -5.99999 -4 6.55
      vertex -5.99999 -9 6.55
    endloop
  endfacet
  facet normal 0 0 1
    outer loop
      vertex -2.80003 -4 6.55
      vertex 2.80003 -4 6.55
      vertex 0 0 6.55
    endloop
  endfacet
  facet normal 0 0 1
    outer loop
      vertex 2.80003 -4 6.55
      vertex -2.80003 -4 6.55
      vertex 0.999999 -9 6.55
    endloop
  endfacet
  facet normal 0 0 1
    outer loop
      vertex 0.999999 -9 6.55
      vertex -2.80003 -4 6.55
      vertex -0.999999 -9 6.55
    endloop
  endfacet
  facet normal 0 0 1
    outer loop
      vertex 8.49991 -17 6.55
      vertex 7.99999 -18 6.55
      vertex 8.49991 -20 6.55
    endloop
  endfacet
  facet normal 0 0 1
    outer loop
      vertex 8.49991 -17 6.55
      vertex 7.5 -18 6.55
      vertex 7.99999 -18 6.55
    endloop
  endfacet
  facet normal 0 0 1
    outer loop
      vertex 0 -10 6.55
      vertex 7.5 -18 6.55
      vertex 6.49994 -10.9999 6.55
    endloop
  endfacet
  facet normal 0 0 1
    outer loop
      vertex 6.49994 -10.9999 6.55
      vertex 7.5 -18 6.55
      vertex 8.49991 -17 6.55
    endloop
  endfacet
  facet normal -0 0 1
    outer loop
      vertex 7.99999 -19 6.55
      vertex 8.49991 -20 6.55
      vertex 7.99999 -18 6.55
    endloop
  endfacet
  facet normal -0 0 1
    outer loop
      vertex 7.5 -19 6.55
      vertex 8.49991 -20 6.55
      vertex 7.99999 -19 6.55
    endloop
  endfacet
  facet normal -0 0 1
    outer loop
      vertex 0.999999 -9 6.55
      vertex 6.49994 -10.9999 6.55
      vertex 5.58 -9 6.55
    endloop
  endfacet
  facet normal 0 0 1
    outer loop
      vertex 0.999999 -9 6.55
      vertex 5.58 -9 6.55
      vertex 2.80003 -4 6.55
    endloop
  endfacet
  facet normal 0 0 1
    outer loop
      vertex 6.49994 -10.9999 6.55
      vertex 0.999999 -9 6.55
      vertex 0 -10 6.55
    endloop
  endfacet
  facet normal 0 0 1
    outer loop
      vertex -7.5 -18 6.55
      vertex 7.5 -18 6.55
      vertex 0 -10 6.55
    endloop
  endfacet
  facet normal 0 0 1
    outer loop
      vertex -6.49994 -10.9999 6.55
      vertex 0 -10 6.55
      vertex -0.999999 -9 6.55
    endloop
  endfacet
  facet normal 0 0 1
    outer loop
      vertex -5.58 -9 6.55
      vertex -0.999999 -9 6.55
      vertex -2.80003 -4 6.55
    endloop
  endfacet
  facet normal 0 0 1
    outer loop
      vertex -6.49994 -10.9999 6.55
      vertex -0.999999 -9 6.55
      vertex -5.58 -9 6.55
    endloop
  endfacet
  facet normal 0 0 1
    outer loop
      vertex 0 -10 6.55
      vertex -6.49994 -10.9999 6.55
      vertex -7.5 -18 6.55
    endloop
  endfacet
  facet normal 0 0 1
    outer loop
      vertex 7.5 -18 6.55
      vertex -7.5 -18 6.55
      vertex 7.5 -19 6.55
    endloop
  endfacet
  facet normal 0 0 1
    outer loop
      vertex -7.5 -19 6.55
      vertex 7.5 -19 6.55
      vertex -7.5 -18 6.55
    endloop
  endfacet
  facet normal 0 0 1
    outer loop
      vertex 7.5 -19 6.55
      vertex -7.5 -19 6.55
      vertex 8.49991 -20 6.55
    endloop
  endfacet
  facet normal 0 0 1
    outer loop
      vertex -8.49991 -20 6.55
      vertex -7.5 -19 6.55
      vertex -7.99999 -19 6.55
    endloop
  endfacet
  facet normal 0 0 1
    outer loop
      vertex -7.5 -19 6.55
      vertex -8.49991 -20 6.55
      vertex 8.49991 -20 6.55
    endloop
  endfacet
  facet normal 0 0 1
    outer loop
      vertex -8.49991 -20 6.55
      vertex -7.99999 -19 6.55
      vertex -8.49991 -17 6.55
    endloop
  endfacet
  facet normal -0.874172 0.291383 -0.388483
    outer loop
      vertex -7.5 -17.9999 3.44999
      vertex -8.49991 -17 6.45
      vertex -6.49994 -10.9999 6.45
    endloop
  endfacet
  facet normal 0.777082 0.357451 -0.518047
    outer loop
      vertex 5.58 -9 6.45
      vertex 6.49994 -10.9999 6.45
      vertex 5.48 -9 6.29999
    endloop
  endfacet
  facet normal 0.777082 0.357451 -0.518046
    outer loop
      vertex 5.48 -9 6.29999
      vertex 4.49997 -10.9999 3.44999
      vertex 4.21498 -6.24991 6.29999
    endloop
  endfacet
  facet normal 0.777082 0.357451 -0.518046
    outer loop
      vertex 4.49997 -10.9999 3.44999
      vertex 5.48 -9 6.29999
      vertex 6.49994 -10.9999 6.45
    endloop
  endfacet
  facet normal -0.678846 0.407305 -0.610959
    outer loop
      vertex 0 -3.49991 3.44999
      vertex -4.21498 -6.24991 6.29999
      vertex -3.98998 -5.87491 6.29999
    endloop
  endfacet
  facet normal -0.678846 0.407305 -0.610959
    outer loop
      vertex -4.21498 -6.24991 6.29999
      vertex 0 -3.49991 3.44999
      vertex -4.49997 -10.9999 3.44999
    endloop
  endfacet
  facet normal -0.777082 0.357451 -0.518046
    outer loop
      vertex -4.49997 -10.9999 3.44999
      vertex -5.48 -9 6.29999
      vertex -4.21498 -6.24991 6.29999
    endloop
  endfacet
  facet normal -0.777082 0.357451 -0.518046
    outer loop
      vertex -6.49994 -10.9999 6.45
      vertex -5.48 -9 6.29999
      vertex -4.49997 -10.9999 3.44999
    endloop
  endfacet
  facet normal -0.777082 0.357451 -0.518047
    outer loop
      vertex -5.48 -9 6.29999
      vertex -6.49994 -10.9999 6.45
      vertex -5.58 -9 6.45
    endloop
  endfacet
  facet normal -0.415577 0.346311 -0.84105
    outer loop
      vertex 0 -12 -0.0499916
      vertex -2.5 -15 -0.0499916
      vertex 0 -3.49991 3.44999
    endloop
  endfacet
  facet normal 0.415577 0.346311 -0.84105
    outer loop
      vertex 2.5 -15 -0.0499916
      vertex 0 -12 -0.0499916
      vertex 0 -3.49991 3.44999
    endloop
  endfacet
  facet normal 0.759252 0 -0.650797
    outer loop
      vertex 7.5 -20 3.44999
      vertex 4.49997 -18.9999 -0.0499916
      vertex 7.5 -17.9999 3.44999
    endloop
  endfacet
  facet normal 0.759252 0 -0.650797
    outer loop
      vertex 4.49997 -18.9999 -0.0499916
      vertex 7.5 -20 3.44999
      vertex 4.49997 -20 -0.0499916
    endloop
  endfacet
  facet normal 0.683056 0.292742 -0.669131
    outer loop
      vertex 7.5 -17.9999 3.44999
      vertex 4.49997 -18.9999 -0.0499916
      vertex 4.49997 -10.9999 3.44999
    endloop
  endfacet
  facet normal 0 0 -1
    outer loop
      vertex -4.49997 -18.9999 -0.0499916
      vertex 4.49997 -18.9999 -0.0499916
      vertex 4.49997 -20 -0.0499916
    endloop
  endfacet
  facet normal 0 0 -1
    outer loop
      vertex 4.49997 -18.9999 -0.0499916
      vertex -4.49997 -18.9999 -0.0499916
      vertex 2.5 -15 -0.0499916
    endloop
  endfacet
  facet normal 0 0 -1
    outer loop
      vertex 2.5 -15 -0.0499916
      vertex -2.5 -15 -0.0499916
      vertex 0 -12 -0.0499916
    endloop
  endfacet
  facet normal 0 0 -1
    outer loop
      vertex -4.49997 -18.9999 -0.0499916
      vertex 4.49997 -20 -0.0499916
      vertex -4.49997 -20 -0.0499916
    endloop
  endfacet
  facet normal -0 0 -1
    outer loop
      vertex 2.5 -15 -0.0499916
      vertex -4.49997 -18.9999 -0.0499916
      vertex -2.5 -15 -0.0499916
    endloop
  endfacet
  facet normal -1 0 0
    outer loop
      vertex -8.49991 -20 6.45
      vertex -8.49991 -17 6.55
      vertex -8.49991 -17 6.45
    endloop
  endfacet
  facet normal -1 -0 0
    outer loop
      vertex -8.49991 -17 6.55
      vertex -8.49991 -20 6.45
      vertex -8.49991 -20 6.55
    endloop
  endfacet
  facet normal -0.783715 0.335883 -0.522468
    outer loop
      vertex -4.49997 -10.9999 3.44999
      vertex -7.5 -17.9999 3.44999
      vertex -6.49994 -10.9999 6.45
    endloop
  endfacet
  facet normal -0.683056 0.292742 -0.669131
    outer loop
      vertex -4.49997 -18.9999 -0.0499916
      vertex -7.5 -17.9999 3.44999
      vertex -4.49997 -10.9999 3.44999
    endloop
  endfacet
  facet normal -0.625471 0.312736 -0.71483
    outer loop
      vertex -2.5 -15 -0.0499916
      vertex -4.49997 -18.9999 -0.0499916
      vertex -4.49997 -10.9999 3.44999
    endloop
  endfacet
  facet normal -0.58317 0.3499 -0.733132
    outer loop
      vertex -2.5 -15 -0.0499916
      vertex -4.49997 -10.9999 3.44999
      vertex 0 -3.49991 3.44999
    endloop
  endfacet
  facet normal 0.908493 0.417899 0
    outer loop
      vertex 6.49994 -10.9999 6.55
      vertex 5.58 -9 6.45
      vertex 5.58 -9 6.55
    endloop
  endfacet
  facet normal 0.908493 0.417899 0
    outer loop
      vertex 5.58 -9 6.45
      vertex 6.49994 -10.9999 6.55
      vertex 6.49994 -10.9999 6.45
    endloop
  endfacet
  facet normal 0.625471 0.312736 -0.71483
    outer loop
      vertex 4.49997 -18.9999 -0.0499916
      vertex 2.5 -15 -0.0499916
      vertex 4.49997 -10.9999 3.44999
    endloop
  endfacet
  facet normal -0.948686 0.316221 0
    outer loop
      vertex -8.49991 -17 6.45
      vertex -6.49994 -10.9999 6.55
      vertex -6.49994 -10.9999 6.45
    endloop
  endfacet
  facet normal -0.948686 0.316221 0
    outer loop
      vertex -6.49994 -10.9999 6.55
      vertex -8.49991 -17 6.45
      vertex -8.49991 -17 6.55
    endloop
  endfacet
  facet normal -0.680897 0.476633 -0.556057
    outer loop
      vertex 0 -3.49991 3.44999
      vertex -3.98998 -5.87491 6.29999
      vertex -2.67753 -4 6.29999
    endloop
  endfacet
  facet normal -0.680897 0.476633 -0.556057
    outer loop
      vertex -2.67753 -4 6.29999
      vertex 0 -1.99999 4.73567
      vertex 0 -3.49991 3.44999
    endloop
  endfacet
  facet normal -0.680897 0.476633 -0.556057
    outer loop
      vertex 0 -1.99999 4.73567
      vertex -2.67753 -4 6.29999
      vertex -1.27752 -1.99999 6.3
    endloop
  endfacet
  facet normal -0.683757 0.478635 -0.550804
    outer loop
      vertex -1.27752 -1.99999 6.3
      vertex -2.67753 -4 6.29999
      vertex -2.67753 -4 6.3
    endloop
  endfacet
  facet normal 0.874172 0.291383 -0.388483
    outer loop
      vertex 7.5 -17.9999 3.44999
      vertex 6.49994 -10.9999 6.45
      vertex 8.49991 -17 6.45
    endloop
  endfacet
  facet normal 0.783715 0.335883 -0.522468
    outer loop
      vertex 7.5 -17.9999 3.44999
      vertex 4.49997 -10.9999 3.44999
      vertex 6.49994 -10.9999 6.45
    endloop
  endfacet
  facet normal 0.948692 0 -0.316202
    outer loop
      vertex 8.49991 -20 6.45
      vertex 7.5 -17.9999 3.44999
      vertex 8.49991 -17 6.45
    endloop
  endfacet
  facet normal 0.948692 0 -0.316202
    outer loop
      vertex 7.5 -17.9999 3.44999
      vertex 8.49991 -20 6.45
      vertex 7.5 -20 3.44999
    endloop
  endfacet
  facet normal 1 -0 0
    outer loop
      vertex 8.49991 -20 6.55
      vertex 8.49991 -17 6.45
      vertex 8.49991 -17 6.55
    endloop
  endfacet
  facet normal 1 0 0
    outer loop
      vertex 8.49991 -17 6.45
      vertex 8.49991 -20 6.55
      vertex 8.49991 -20 6.45
    endloop
  endfacet
  facet normal 0 -1 0
    outer loop
      vertex -7.5 -20 3.44999
      vertex -8.49991 -20 6.55
      vertex -8.49991 -20 6.45
    endloop
  endfacet
  facet normal 0 -1 0
    outer loop
      vertex -8.49991 -20 6.55
      vertex -7.5 -20 3.44999
      vertex 8.49991 -20 6.55
    endloop
  endfacet
  facet normal 0 -1 0
    outer loop
      vertex 7.5 -20 3.44999
      vertex 8.49991 -20 6.55
      vertex -7.5 -20 3.44999
    endloop
  endfacet
  facet normal 0 -1 -0
    outer loop
      vertex 8.49991 -20 6.55
      vertex 7.5 -20 3.44999
      vertex 8.49991 -20 6.45
    endloop
  endfacet
  facet normal 0 -1 0
    outer loop
      vertex -4.49997 -20 -0.0499916
      vertex 7.5 -20 3.44999
      vertex -7.5 -20 3.44999
    endloop
  endfacet
  facet normal 0 -1 0
    outer loop
      vertex 7.5 -20 3.44999
      vertex -4.49997 -20 -0.0499916
      vertex 4.49997 -20 -0.0499916
    endloop
  endfacet
  facet normal -0.908493 0.417899 0
    outer loop
      vertex -6.49994 -10.9999 6.45
      vertex -5.58 -9 6.55
      vertex -5.58 -9 6.45
    endloop
  endfacet
  facet normal -0.908493 0.417899 0
    outer loop
      vertex -5.58 -9 6.55
      vertex -6.49994 -10.9999 6.45
      vertex -6.49994 -10.9999 6.55
    endloop
  endfacet
  facet normal 0.680897 0.476633 -0.556057
    outer loop
      vertex 2.67753 -4 6.29999
      vertex 0 -1.99999 4.73567
      vertex 1.27752 -1.99999 6.3
    endloop
  endfacet
  facet normal 0.683757 0.478635 -0.550804
    outer loop
      vertex 2.67753 -4 6.29999
      vertex 1.27752 -1.99999 6.3
      vertex 2.67753 -4 6.3
    endloop
  endfacet
  facet normal 0.680897 0.476633 -0.556057
    outer loop
      vertex 0 -1.99999 4.73567
      vertex 2.67753 -4 6.29999
      vertex 0 -3.49991 3.44999
    endloop
  endfacet
  facet normal 0.680897 0.476633 -0.556057
    outer loop
      vertex 0 -3.49991 3.44999
      vertex 2.67753 -4 6.29999
      vertex 3.98998 -5.87491 6.29999
    endloop
  endfacet
  facet normal -0.948692 0 -0.316202
    outer loop
      vertex -8.49991 -20 6.45
      vertex -7.5 -17.9999 3.44999
      vertex -7.5 -20 3.44999
    endloop
  endfacet
  facet normal -0.948692 0 -0.316202
    outer loop
      vertex -7.5 -17.9999 3.44999
      vertex -8.49991 -20 6.45
      vertex -8.49991 -17 6.45
    endloop
  endfacet
  facet normal -0.759252 0 -0.650797
    outer loop
      vertex -7.5 -20 3.44999
      vertex -4.49997 -18.9999 -0.0499916
      vertex -4.49997 -20 -0.0499916
    endloop
  endfacet
  facet normal -0.759252 0 -0.650797
    outer loop
      vertex -4.49997 -18.9999 -0.0499916
      vertex -7.5 -20 3.44999
      vertex -7.5 -17.9999 3.44999
    endloop
  endfacet
  facet normal -0.707107 -0.707107 0
    outer loop
      vertex 1.97989 -8.0201 6.2
      vertex 0 -6.0402 6.29999
      vertex 0 -6.0402 6.2
    endloop
  endfacet
  facet normal -0.707107 -0.707107 0
    outer loop
      vertex 0 -6.0402 6.29999
      vertex 1.97989 -8.0201 6.2
      vertex 1.97989 -8.0201 6.29999
    endloop
  endfacet
  facet normal 0.707108 0.707105 0
    outer loop
      vertex -0.999999 -9 6.55
      vertex 0 -10 6.55
      vertex -0.999999 -9 6.29999
    endloop
  endfacet
  facet normal 0.707108 0.707105 0
    outer loop
      vertex -0.999999 -9 6.29999
      vertex -1.97989 -8.0201 6.2
      vertex -1.97989 -8.0201 6.29999
    endloop
  endfacet
  facet normal 0.707108 0.707105 -7.91155e-08
    outer loop
      vertex -0.999999 -9 6.29999
      vertex 0 -10 6.2
      vertex -1.97989 -8.0201 6.2
    endloop
  endfacet
  facet normal 0.707108 0.707105 -0
    outer loop
      vertex 0 -10 6.2
      vertex -0.999999 -9 6.29999
      vertex 0 -10 6.55
    endloop
  endfacet
  facet normal 0 0 1
    outer loop
      vertex 0 -6.0402 6.2
      vertex 0 -10 6.2
      vertex 1.97989 -8.0201 6.2
    endloop
  endfacet
  facet normal 0 -0 1
    outer loop
      vertex 0 -10 6.2
      vertex 0 -6.0402 6.2
      vertex -1.97989 -8.0201 6.2
    endloop
  endfacet
  facet normal -0.707108 0.707105 0
    outer loop
      vertex 1.97989 -8.0201 6.2
      vertex 0.999999 -9 6.29999
      vertex 1.97989 -8.0201 6.29999
    endloop
  endfacet
  facet normal -0.707108 0.707105 -7.91155e-08
    outer loop
      vertex 0 -10 6.2
      vertex 0.999999 -9 6.29999
      vertex 1.97989 -8.0201 6.2
    endloop
  endfacet
  facet normal -0.707108 0.707105 0
    outer loop
      vertex 0 -10 6.55
      vertex 0.999999 -9 6.29999
      vertex 0 -10 6.2
    endloop
  endfacet
  facet normal -0.707108 0.707105 0
    outer loop
      vertex 0.999999 -9 6.29999
      vertex 0 -10 6.55
      vertex 0.999999 -9 6.55
    endloop
  endfacet
  facet normal 0.707107 -0.707107 0
    outer loop
      vertex -1.97989 -8.0201 6.29999
      vertex 0 -6.0402 6.2
      vertex 0 -6.0402 6.29999
    endloop
  endfacet
  facet normal 0.707107 -0.707107 0
    outer loop
      vertex 0 -6.0402 6.2
      vertex -1.97989 -8.0201 6.29999
      vertex -1.97989 -8.0201 6.2
    endloop
  endfacet
  facet normal 1 -0 0
    outer loop
      vertex -7.99999 -19 6.55
      vertex -7.99999 -18 5.49999
      vertex -7.99999 -18 6.55
    endloop
  endfacet
  facet normal 1 0 0
    outer loop
      vertex -7.99999 -18 5.49999
      vertex -7.99999 -19 6.55
      vertex -7.99999 -19 5.49999
    endloop
  endfacet
  facet normal -1 0 0
    outer loop
      vertex -7.5 -19 5.49999
      vertex -7.5 -18 6.55
      vertex -7.5 -18 5.49999
    endloop
  endfacet
  facet normal -1 -0 0
    outer loop
      vertex -7.5 -18 6.55
      vertex -7.5 -19 5.49999
      vertex -7.5 -19 6.55
    endloop
  endfacet
  facet normal -0 0 1
    outer loop
      vertex -7.99999 -18 5.49999
      vertex -7.5 -19 5.49999
      vertex -7.5 -18 5.49999
    endloop
  endfacet
  facet normal 0 0 1
    outer loop
      vertex -7.5 -19 5.49999
      vertex -7.99999 -18 5.49999
      vertex -7.99999 -19 5.49999
    endloop
  endfacet
  facet normal 0 1 -0
    outer loop
      vertex -7.5 -19 5.49999
      vertex -7.99999 -19 6.55
      vertex -7.5 -19 6.55
    endloop
  endfacet
  facet normal 0 1 0
    outer loop
      vertex -7.99999 -19 6.55
      vertex -7.5 -19 5.49999
      vertex -7.99999 -19 5.49999
    endloop
  endfacet
  facet normal 0 -1 0
    outer loop
      vertex -7.99999 -18 5.49999
      vertex -7.5 -18 6.55
      vertex -7.99999 -18 6.55
    endloop
  endfacet
  facet normal 0 -1 -0
    outer loop
      vertex -7.5 -18 6.55
      vertex -7.99999 -18 5.49999
      vertex -7.5 -18 5.49999
    endloop
  endfacet
  facet normal 1 -0 0
    outer loop
      vertex 7.5 -19 6.55
      vertex 7.5 -18 5.49999
      vertex 7.5 -18 6.55
    endloop
  endfacet
  facet normal 1 0 0
    outer loop
      vertex 7.5 -18 5.49999
      vertex 7.5 -19 6.55
      vertex 7.5 -19 5.49999
    endloop
  endfacet
  facet normal -1 0 0
    outer loop
      vertex 7.99999 -19 5.49999
      vertex 7.99999 -18 6.55
      vertex 7.99999 -18 5.49999
    endloop
  endfacet
  facet normal -1 -0 0
    outer loop
      vertex 7.99999 -18 6.55
      vertex 7.99999 -19 5.49999
      vertex 7.99999 -19 6.55
    endloop
  endfacet
  facet normal -0 0 1
    outer loop
      vertex 7.5 -18 5.49999
      vertex 7.99999 -19 5.49999
      vertex 7.99999 -18 5.49999
    endloop
  endfacet
  facet normal 0 0 1
    outer loop
      vertex 7.99999 -19 5.49999
      vertex 7.5 -18 5.49999
      vertex 7.5 -19 5.49999
    endloop
  endfacet
  facet normal 0 1 -0
    outer loop
      vertex 7.99999 -19 5.49999
      vertex 7.5 -19 6.55
      vertex 7.99999 -19 6.55
    endloop
  endfacet
  facet normal 0 1 0
    outer loop
      vertex 7.5 -19 6.55
      vertex 7.99999 -19 5.49999
      vertex 7.5 -19 5.49999
    endloop
  endfacet
  facet normal 0 -1 0
    outer loop
      vertex 7.5 -18 5.49999
      vertex 7.99999 -18 6.55
      vertex 7.5 -18 6.55
    endloop
  endfacet
  facet normal 0 -1 -0
    outer loop
      vertex 7.99999 -18 6.55
      vertex 7.5 -18 5.49999
      vertex 7.99999 -18 5.49999
    endloop
  endfacet
  facet normal -1 0 0
    outer loop
      vertex -5 -1.99999 6.07542
      vertex -5 1 6.3
      vertex -5 1 4.34338
    endloop
  endfacet
  facet normal -1 -0 0
    outer loop
      vertex -5 1 6.3
      vertex -5 -1.99999 6.07542
      vertex -5 -1.99999 6.3
    endloop
  endfacet
  facet normal 0 0 -1
    outer loop
      vertex -5.99999 -4 6.3
      vertex -4.8 -1.99999 6.3
      vertex -2.67753 -4 6.3
    endloop
  endfacet
  facet normal -0 0 -1
    outer loop
      vertex -4.8 -1.99999 6.3
      vertex -5.99999 -4 6.3
      vertex -5 -1.99999 6.3
    endloop
  endfacet
  facet normal 0 0 -1
    outer loop
      vertex -5.99999 1 6.3
      vertex -5 -1.99999 6.3
      vertex -5.99999 -4 6.3
    endloop
  endfacet
  facet normal 0 0 -1
    outer loop
      vertex -5 -1.99999 6.3
      vertex -5.99999 1 6.3
      vertex -5 1 6.3
    endloop
  endfacet
  facet normal 0 0 -1
    outer loop
      vertex -2.67753 -4 6.3
      vertex -2 -1.99999 6.3
      vertex -1.27752 -1.99999 6.3
    endloop
  endfacet
  facet normal 0 0 -1
    outer loop
      vertex -4.8 -1.99999 6.3
      vertex -2 -1.99999 6.3
      vertex -2.67753 -4 6.3
    endloop
  endfacet
  facet normal 0 0 -1
    outer loop
      vertex -2 -1.99999 6.3
      vertex -4.8 -1.99999 6.3
      vertex -2 1 6.3
    endloop
  endfacet
  facet normal -0 0 -1
    outer loop
      vertex -2 1 6.3
      vertex -4.8 -1.99999 6.3
      vertex -4.8 1 6.3
    endloop
  endfacet
  facet normal 0 0 -1
    outer loop
      vertex 2.67753 -4 6.3
      vertex 1.27752 -1.99999 6.3
      vertex 2 -1.99999 6.3
    endloop
  endfacet
  facet normal 0 0 -1
    outer loop
      vertex 5.99999 -4 6.3
      vertex 5.2 -1.99999 6.3
      vertex 5.99999 1 6.3
    endloop
  endfacet
  facet normal 0 0 -1
    outer loop
      vertex 5.99999 -4 6.3
      vertex 5 -1.99999 6.3
      vertex 5.2 -1.99999 6.3
    endloop
  endfacet
  facet normal 0 0 -1
    outer loop
      vertex 2.67753 -4 6.3
      vertex 5 -1.99999 6.3
      vertex 5.99999 -4 6.3
    endloop
  endfacet
  facet normal 0 0 -1
    outer loop
      vertex 2 -1.99999 6.3
      vertex 5 -1.99999 6.3
      vertex 2.67753 -4 6.3
    endloop
  endfacet
  facet normal 0 0 -1
    outer loop
      vertex 5 -1.99999 6.3
      vertex 2 -1.99999 6.3
      vertex 5 1 6.3
    endloop
  endfacet
  facet normal -0 0 -1
    outer loop
      vertex 5 1 6.3
      vertex 2 -1.99999 6.3
      vertex 2 1 6.3
    endloop
  endfacet
  facet normal -0 0 -1
    outer loop
      vertex 5.99999 1 6.3
      vertex 5.2 -1.99999 6.3
      vertex 5.2 1 6.3
    endloop
  endfacet
  facet normal 1 0 0
    outer loop
      vertex -4.8 -1.99999 6.07542
      vertex -4.8 1 6.3
      vertex -4.8 -1.99999 6.3
    endloop
  endfacet
  facet normal 1 0 0
    outer loop
      vertex -4.8 1 6.3
      vertex -4.8 -1.99999 6.07542
      vertex -4.8 1 4.34338
    endloop
  endfacet
  facet normal 0 -1 0
    outer loop
      vertex -5.99999 1 6.3
      vertex -5 1 4.34338
      vertex -5 1 6.3
    endloop
  endfacet
  facet normal 0 -1 0
    outer loop
      vertex -5.99999 1 1.5
      vertex -4.8 1 4.34338
      vertex -5 1 4.34338
    endloop
  endfacet
  facet normal 0 -1 -0
    outer loop
      vertex -2 1 4.3
      vertex -5.99999 1 1.5
      vertex 2 1 4.3
    endloop
  endfacet
  facet normal 0 -1 -0
    outer loop
      vertex -4.8 1 4.34338
      vertex -5.99999 1 1.5
      vertex -2 1 4.3
    endloop
  endfacet
  facet normal 0 -1 0
    outer loop
      vertex -5.99999 1 1.5
      vertex -5 1 4.34338
      vertex -5.99999 1 6.3
    endloop
  endfacet
  facet normal 0 -1 0
    outer loop
      vertex -4.8 1 4.34338
      vertex -2 1 6.3
      vertex -4.8 1 6.3
    endloop
  endfacet
  facet normal 0 -1 -0
    outer loop
      vertex -2 1 6.3
      vertex -4.8 1 4.34338
      vertex -2 1 4.3
    endloop
  endfacet
  facet normal 0 -1 0
    outer loop
      vertex 2 1 6.3
      vertex 5 1 4.34338
      vertex 5 1 6.3
    endloop
  endfacet
  facet normal 0 -1 0
    outer loop
      vertex 5.99999 1 1.5
      vertex 5 1 4.34338
      vertex 2 1 4.3
    endloop
  endfacet
  facet normal 0 -1 0
    outer loop
      vertex 2 1 4.3
      vertex 5 1 4.34338
      vertex 2 1 6.3
    endloop
  endfacet
  facet normal 0 -1 0
    outer loop
      vertex 5.2 1 4.34338
      vertex 5.99999 1 6.3
      vertex 5.2 1 6.3
    endloop
  endfacet
  facet normal 0 -1 0
    outer loop
      vertex 5.99999 1 1.5
      vertex 2 1 4.3
      vertex -5.99999 1 1.5
    endloop
  endfacet
  facet normal 0 -1 0
    outer loop
      vertex 5.2 1 4.34338
      vertex 5.99999 1 1.5
      vertex 5.99999 1 6.3
    endloop
  endfacet
  facet normal 0 -1 0
    outer loop
      vertex 5 1 4.34338
      vertex 5.99999 1 1.5
      vertex 5.2 1 4.34338
    endloop
  endfacet
  facet normal 0 1 -0
    outer loop
      vertex 5.99999 1 6.5
      vertex -5.99999 1 6.55
      vertex 5.99999 1 6.55
    endloop
  endfacet
  facet normal 0 1 0
    outer loop
      vertex -5.99999 1 6.55
      vertex 5.99999 1 6.5
      vertex -5.99999 1 6.5
    endloop
  endfacet
  facet normal 0 -1 0
    outer loop
      vertex -5 -1.99999 6.07542
      vertex -4.8 -1.99999 6.3
      vertex -5 -1.99999 6.3
    endloop
  endfacet
  facet normal 0 -1 -0
    outer loop
      vertex -4.8 -1.99999 6.3
      vertex -5 -1.99999 6.07542
      vertex -4.8 -1.99999 6.07542
    endloop
  endfacet
  facet normal 0 -0.499999 -0.866026
    outer loop
      vertex -5 -1.99999 6.07542
      vertex -4.8 1 4.34338
      vertex -4.8 -1.99999 6.07542
    endloop
  endfacet
  facet normal -0 -0.499999 -0.866026
    outer loop
      vertex -4.8 1 4.34338
      vertex -5 -1.99999 6.07542
      vertex -5 1 4.34338
    endloop
  endfacet
  facet normal -1 0 0
    outer loop
      vertex 5 -1.99999 6.07542
      vertex 5 1 6.3
      vertex 5 1 4.34338
    endloop
  endfacet
  facet normal -1 -0 0
    outer loop
      vertex 5 1 6.3
      vertex 5 -1.99999 6.07542
      vertex 5 -1.99999 6.3
    endloop
  endfacet
  facet normal 1 0 0
    outer loop
      vertex 5.2 -1.99999 6.07542
      vertex 5.2 1 6.3
      vertex 5.2 -1.99999 6.3
    endloop
  endfacet
  facet normal 1 0 0
    outer loop
      vertex 5.2 1 6.3
      vertex 5.2 -1.99999 6.07542
      vertex 5.2 1 4.34338
    endloop
  endfacet
  facet normal 0 -1 0
    outer loop
      vertex 5 -1.99999 6.07542
      vertex 5.2 -1.99999 6.3
      vertex 5 -1.99999 6.3
    endloop
  endfacet
  facet normal 0 -1 -0
    outer loop
      vertex 5.2 -1.99999 6.3
      vertex 5 -1.99999 6.07542
      vertex 5.2 -1.99999 6.07542
    endloop
  endfacet
  facet normal 0 -0.499999 -0.866026
    outer loop
      vertex 5 -1.99999 6.07542
      vertex 5.2 1 4.34338
      vertex 5.2 -1.99999 6.07542
    endloop
  endfacet
  facet normal -0 -0.499999 -0.866026
    outer loop
      vertex 5.2 1 4.34338
      vertex 5 -1.99999 6.07542
      vertex 5 1 4.34338
    endloop
  endfacet
  facet normal -1 0 0
    outer loop
      vertex -5.99999 -9 6.29999
      vertex -5.99999 -4 6.3
      vertex -5.99999 -4 6.29999
    endloop
  endfacet
  facet normal -1 -0 0
    outer loop
      vertex -5.99999 -4 6.3
      vertex -5.99999 -9 6.29999
      vertex -5.99999 -4 6.55
    endloop
  endfacet
  facet normal -1 0 0
    outer loop
      vertex -5.99999 -9 6.55
      vertex -5.99999 -4 6.55
      vertex -5.99999 -9 6.29999
    endloop
  endfacet
  facet normal -1 0 0
    outer loop
      vertex -5.99999 1 6.3
      vertex -5.99999 1.25 1.5
      vertex -5.99999 1 1.5
    endloop
  endfacet
  facet normal -1 0 0
    outer loop
      vertex -5.99999 1.25 1.5
      vertex -5.99999 1 6.3
      vertex -5.99999 1.25 6.5
    endloop
  endfacet
  facet normal -1 0 0
    outer loop
      vertex -5.99999 1 6.3
      vertex -5.99999 1 6.5
      vertex -5.99999 1.25 6.5
    endloop
  endfacet
  facet normal -1 0 0
    outer loop
      vertex -5.99999 -4 6.3
      vertex -5.99999 1 6.5
      vertex -5.99999 1 6.3
    endloop
  endfacet
  facet normal -1 0 0
    outer loop
      vertex -5.99999 -4 6.55
      vertex -5.99999 1 6.5
      vertex -5.99999 -4 6.3
    endloop
  endfacet
  facet normal -1 0 0
    outer loop
      vertex -5.99999 1 6.5
      vertex -5.99999 -4 6.55
      vertex -5.99999 1 6.55
    endloop
  endfacet
  facet normal 0 0 1
    outer loop
      vertex 5.99999 1 6.55
      vertex 2.80003 -4 6.55
      vertex 5.99999 -4 6.55
    endloop
  endfacet
  facet normal 0 0 1
    outer loop
      vertex 5.99999 1 6.55
      vertex 0 0 6.55
      vertex 2.80003 -4 6.55
    endloop
  endfacet
  facet normal -0 0 1
    outer loop
      vertex -5.99999 1 6.55
      vertex 0 0 6.55
      vertex 5.99999 1 6.55
    endloop
  endfacet
  facet normal 0 0 1
    outer loop
      vertex -5.99999 1 6.55
      vertex -2.80003 -4 6.55
      vertex 0 0 6.55
    endloop
  endfacet
  facet normal 0 0 1
    outer loop
      vertex -2.80003 -4 6.55
      vertex -5.99999 1 6.55
      vertex -5.99999 -4 6.55
    endloop
  endfacet
  facet normal 1 0 0
    outer loop
      vertex 5.99999 -4 6.55
      vertex 5.99999 -9 6.55
      vertex 5.99999 -4 6.3
    endloop
  endfacet
  facet normal 1 0 0
    outer loop
      vertex 5.99999 -9 6.29999
      vertex 5.99999 -4 6.3
      vertex 5.99999 -9 6.55
    endloop
  endfacet
  facet normal 1 0 0
    outer loop
      vertex 5.99999 -4 6.3
      vertex 5.99999 -9 6.29999
      vertex 5.99999 -4 6.29999
    endloop
  endfacet
  facet normal 1 0 0
    outer loop
      vertex 5.99999 1 6.3
      vertex 5.99999 1.25 6.5
      vertex 5.99999 1 6.5
    endloop
  endfacet
  facet normal 1 0 0
    outer loop
      vertex 5.99999 1.25 6.5
      vertex 5.99999 1 6.3
      vertex 5.99999 1.25 1.5
    endloop
  endfacet
  facet normal 1 0 0
    outer loop
      vertex 5.99999 1.25 1.5
      vertex 5.99999 1 6.3
      vertex 5.99999 1 1.5
    endloop
  endfacet
  facet normal 1 -0 0
    outer loop
      vertex 5.99999 -4 6.55
      vertex 5.99999 1 6.5
      vertex 5.99999 1 6.55
    endloop
  endfacet
  facet normal 1 0 0
    outer loop
      vertex 5.99999 1 6.5
      vertex 5.99999 -4 6.55
      vertex 5.99999 1 6.3
    endloop
  endfacet
  facet normal 1 0 0
    outer loop
      vertex 5.99999 1 6.3
      vertex 5.99999 -4 6.55
      vertex 5.99999 -4 6.3
    endloop
  endfacet
  facet normal -1 0 0
    outer loop
      vertex -2 -1.99999 4.3
      vertex -2 1 6.3
      vertex -2 1 4.3
    endloop
  endfacet
  facet normal -1 -0 0
    outer loop
      vertex -2 1 6.3
      vertex -2 -1.99999 4.3
      vertex -2 -1.99999 6.3
    endloop
  endfacet
  facet normal 1 -0 0
    outer loop
      vertex 2 -1.99999 6.3
      vertex 2 1 4.3
      vertex 2 1 6.3
    endloop
  endfacet
  facet normal 1 0 0
    outer loop
      vertex 2 1 4.3
      vertex 2 -1.99999 6.3
      vertex 2 -1.99999 4.3
    endloop
  endfacet
  facet normal 0 0 -1
    outer loop
      vertex -2 -1.99999 4.3
      vertex 2 1 4.3
      vertex 2 -1.99999 4.3
    endloop
  endfacet
  facet normal -0 0 -1
    outer loop
      vertex 2 1 4.3
      vertex -2 -1.99999 4.3
      vertex -2 1 4.3
    endloop
  endfacet
  facet normal 0 -1 0
    outer loop
      vertex -2 -1.99999 4.3
      vertex -1.27752 -1.99999 6.3
      vertex -2 -1.99999 6.3
    endloop
  endfacet
  facet normal 0 -1 -0
    outer loop
      vertex -1.27752 -1.99999 6.3
      vertex -2 -1.99999 4.3
      vertex 0 -1.99999 4.73567
    endloop
  endfacet
  facet normal 0 -1 0
    outer loop
      vertex 2 -1.99999 4.3
      vertex 1.27752 -1.99999 6.3
      vertex 0 -1.99999 4.73567
    endloop
  endfacet
  facet normal 0 -1 0
    outer loop
      vertex 1.27752 -1.99999 6.3
      vertex 2 -1.99999 4.3
      vertex 2 -1.99999 6.3
    endloop
  endfacet
  facet normal 0 -1 0
    outer loop
      vertex 2 -1.99999 4.3
      vertex 0 -1.99999 4.73567
      vertex -2 -1.99999 4.3
    endloop
  endfacet
  facet normal 0 0 -1
    outer loop
      vertex -5.11999 1.54999 1.5
      vertex -4.66999 2.45 1.5
      vertex -4.97 1.25 1.5
    endloop
  endfacet
  facet normal -0 0 -1
    outer loop
      vertex -4.66999 2.45 1.5
      vertex -5.11999 1.54999 1.5
      vertex -4.92 2.45 1.5
    endloop
  endfacet
  facet normal 0 0 -1
    outer loop
      vertex -5.72 1.25 1.5
      vertex -5.72 2.45 1.5
      vertex -5.51999 1.54999 1.5
    endloop
  endfacet
  facet normal -0 -0 -1
    outer loop
      vertex -5.72 2.45 1.5
      vertex -5.72 1.25 1.5
      vertex -6.01999 2.74999 1.5
    endloop
  endfacet
  facet normal 0 0 -1
    outer loop
      vertex -3.32 2.45 1.5
      vertex -3.01999 2.74999 1.5
      vertex -3.32 1.25 1.5
    endloop
  endfacet
  facet normal 0 0 -1
    outer loop
      vertex -4.12 2.45 1.5
      vertex -3.01999 2.74999 1.5
      vertex -3.32 2.45 1.5
    endloop
  endfacet
  facet normal 0 0 -1
    outer loop
      vertex -4.36999 2.45 1.5
      vertex -3.01999 2.74999 1.5
      vertex -4.12 2.45 1.5
    endloop
  endfacet
  facet normal 0 0 -1
    outer loop
      vertex -4.66999 2.45 1.5
      vertex -3.01999 2.74999 1.5
      vertex -4.36999 2.45 1.5
    endloop
  endfacet
  facet normal 0 0 -1
    outer loop
      vertex -6.01999 2.74999 1.5
      vertex -4.66999 2.45 1.5
      vertex -4.92 2.45 1.5
    endloop
  endfacet
  facet normal 0 0 -1
    outer loop
      vertex -6.01999 2.74999 1.5
      vertex -4.92 2.45 1.5
      vertex -5.72 2.45 1.5
    endloop
  endfacet
  facet normal 0 0 -1
    outer loop
      vertex -4.66999 2.45 1.5
      vertex -6.01999 2.74999 1.5
      vertex -3.01999 2.74999 1.5
    endloop
  endfacet
  facet normal 0 0 -1
    outer loop
      vertex -4.36999 2.45 1.5
      vertex -3.91999 1.54999 1.5
      vertex -4.07 1.25 1.5
    endloop
  endfacet
  facet normal 0 0 -1
    outer loop
      vertex -3.91999 1.54999 1.5
      vertex -4.36999 2.45 1.5
      vertex -4.12 2.45 1.5
    endloop
  endfacet
  facet normal 0 0 -1
    outer loop
      vertex -2.09999 1.54999 1.5
      vertex -1.65 2.45 1.5
      vertex -1.95 1.25 1.5
    endloop
  endfacet
  facet normal -0 0 -1
    outer loop
      vertex -1.65 2.45 1.5
      vertex -2.09999 1.54999 1.5
      vertex -1.9 2.45 1.5
    endloop
  endfacet
  facet normal 0 0 -1
    outer loop
      vertex -2.7 1.25 1.5
      vertex -2.7 2.45 1.5
      vertex -2.5 1.54999 1.5
    endloop
  endfacet
  facet normal -0 -0 -1
    outer loop
      vertex -2.7 2.45 1.5
      vertex -2.7 1.25 1.5
      vertex -2.99999 2.74999 1.5
    endloop
  endfacet
  facet normal 0 0 -1
    outer loop
      vertex -0.299997 2.45 1.5
      vertex 0 2.74999 1.5
      vertex -0.299997 1.25 1.5
    endloop
  endfacet
  facet normal 0 0 -1
    outer loop
      vertex -1.1 2.45 1.5
      vertex 0 2.74999 1.5
      vertex -0.299997 2.45 1.5
    endloop
  endfacet
  facet normal 0 0 -1
    outer loop
      vertex -1.34999 2.45 1.5
      vertex 0 2.74999 1.5
      vertex -1.1 2.45 1.5
    endloop
  endfacet
  facet normal 0 0 -1
    outer loop
      vertex -1.65 2.45 1.5
      vertex 0 2.74999 1.5
      vertex -1.34999 2.45 1.5
    endloop
  endfacet
  facet normal 0 0 -1
    outer loop
      vertex -2.99999 2.74999 1.5
      vertex -1.65 2.45 1.5
      vertex -1.9 2.45 1.5
    endloop
  endfacet
  facet normal 0 0 -1
    outer loop
      vertex -2.99999 2.74999 1.5
      vertex -1.9 2.45 1.5
      vertex -2.7 2.45 1.5
    endloop
  endfacet
  facet normal 0 0 -1
    outer loop
      vertex -1.65 2.45 1.5
      vertex -2.99999 2.74999 1.5
      vertex 0 2.74999 1.5
    endloop
  endfacet
  facet normal 0 0 -1
    outer loop
      vertex -1.34999 2.45 1.5
      vertex -0.899992 1.54999 1.5
      vertex -1.05 1.25 1.5
    endloop
  endfacet
  facet normal 0 0 -1
    outer loop
      vertex -0.899992 1.54999 1.5
      vertex -1.34999 2.45 1.5
      vertex -1.1 2.45 1.5
    endloop
  endfacet
  facet normal 0 0 -1
    outer loop
      vertex 0.919991 1.54999 1.5
      vertex 1.36999 2.45 1.5
      vertex 1.06999 1.25 1.5
    endloop
  endfacet
  facet normal -0 0 -1
    outer loop
      vertex 1.36999 2.45 1.5
      vertex 0.919991 1.54999 1.5
      vertex 1.12 2.45 1.5
    endloop
  endfacet
  facet normal 0 0 -1
    outer loop
      vertex 0.319996 1.25 1.5
      vertex 0.319996 2.45 1.5
      vertex 0.519991 1.54999 1.5
    endloop
  endfacet
  facet normal -0 -0 -1
    outer loop
      vertex 0.319996 2.45 1.5
      vertex 0.319996 1.25 1.5
      vertex 0.0199986 2.74999 1.5
    endloop
  endfacet
  facet normal 0 0 -1
    outer loop
      vertex 2.71999 2.45 1.5
      vertex 3.01999 2.74999 1.5
      vertex 2.71999 1.25 1.5
    endloop
  endfacet
  facet normal 0 0 -1
    outer loop
      vertex 1.91999 2.45 1.5
      vertex 3.01999 2.74999 1.5
      vertex 2.71999 2.45 1.5
    endloop
  endfacet
  facet normal 0 0 -1
    outer loop
      vertex 1.67 2.45 1.5
      vertex 3.01999 2.74999 1.5
      vertex 1.91999 2.45 1.5
    endloop
  endfacet
  facet normal 0 0 -1
    outer loop
      vertex 1.36999 2.45 1.5
      vertex 3.01999 2.74999 1.5
      vertex 1.67 2.45 1.5
    endloop
  endfacet
  facet normal 0 0 -1
    outer loop
      vertex 0.0199986 2.74999 1.5
      vertex 1.36999 2.45 1.5
      vertex 1.12 2.45 1.5
    endloop
  endfacet
  facet normal 0 0 -1
    outer loop
      vertex 0.0199986 2.74999 1.5
      vertex 1.12 2.45 1.5
      vertex 0.319996 2.45 1.5
    endloop
  endfacet
  facet normal 0 0 -1
    outer loop
      vertex 1.36999 2.45 1.5
      vertex 0.0199986 2.74999 1.5
      vertex 3.01999 2.74999 1.5
    endloop
  endfacet
  facet normal 0 0 -1
    outer loop
      vertex 1.67 2.45 1.5
      vertex 2.12 1.54999 1.5
      vertex 1.97 1.25 1.5
    endloop
  endfacet
  facet normal 0 0 -1
    outer loop
      vertex 2.12 1.54999 1.5
      vertex 1.67 2.45 1.5
      vertex 1.91999 2.45 1.5
    endloop
  endfacet
  facet normal 0 0 -1
    outer loop
      vertex 3.93999 1.54999 1.5
      vertex 4.38999 2.45 1.5
      vertex 4.08999 1.25 1.5
    endloop
  endfacet
  facet normal -0 0 -1
    outer loop
      vertex 4.38999 2.45 1.5
      vertex 3.93999 1.54999 1.5
      vertex 4.14 2.45 1.5
    endloop
  endfacet
  facet normal 0 0 -1
    outer loop
      vertex 3.34 1.25 1.5
      vertex 3.34 2.45 1.5
      vertex 3.53999 1.54999 1.5
    endloop
  endfacet
  facet normal -0 -0 -1
    outer loop
      vertex 3.34 2.45 1.5
      vertex 3.34 1.25 1.5
      vertex 3.04 2.74999 1.5
    endloop
  endfacet
  facet normal 0 0 -1
    outer loop
      vertex 5.73999 2.45 1.5
      vertex 6.03999 2.74999 1.5
      vertex 5.73999 1.25 1.5
    endloop
  endfacet
  facet normal 0 0 -1
    outer loop
      vertex 4.93999 2.45 1.5
      vertex 6.03999 2.74999 1.5
      vertex 5.73999 2.45 1.5
    endloop
  endfacet
  facet normal 0 0 -1
    outer loop
      vertex 4.69 2.45 1.5
      vertex 6.03999 2.74999 1.5
      vertex 4.93999 2.45 1.5
    endloop
  endfacet
  facet normal 0 0 -1
    outer loop
      vertex 4.38999 2.45 1.5
      vertex 6.03999 2.74999 1.5
      vertex 4.69 2.45 1.5
    endloop
  endfacet
  facet normal 0 0 -1
    outer loop
      vertex 3.04 2.74999 1.5
      vertex 4.38999 2.45 1.5
      vertex 4.14 2.45 1.5
    endloop
  endfacet
  facet normal 0 0 -1
    outer loop
      vertex 3.04 2.74999 1.5
      vertex 4.14 2.45 1.5
      vertex 3.34 2.45 1.5
    endloop
  endfacet
  facet normal 0 0 -1
    outer loop
      vertex 4.38999 2.45 1.5
      vertex 3.04 2.74999 1.5
      vertex 6.03999 2.74999 1.5
    endloop
  endfacet
  facet normal 0 0 -1
    outer loop
      vertex 5.99999 1 1.5
      vertex 5.73999 1.25 1.5
      vertex 5.99999 1.25 1.5
    endloop
  endfacet
  facet normal 0 0 -1
    outer loop
      vertex 5.73999 1.25 1.5
      vertex 5.54 1.54999 1.5
      vertex 5.73999 2.45 1.5
    endloop
  endfacet
  facet normal 0 0 -1
    outer loop
      vertex 4.99 1.25 1.5
      vertex 5.54 1.54999 1.5
      vertex 5.73999 1.25 1.5
    endloop
  endfacet
  facet normal 0 0 -1
    outer loop
      vertex 4.99 1.25 1.5
      vertex 5.73999 1.25 1.5
      vertex 5.99999 1 1.5
    endloop
  endfacet
  facet normal -0 0 -1
    outer loop
      vertex 5.54 1.54999 1.5
      vertex 4.99 1.25 1.5
      vertex 5.14 1.54999 1.5
    endloop
  endfacet
  facet normal 0 0 -1
    outer loop
      vertex 5.99999 1 1.5
      vertex 4.08999 1.25 1.5
      vertex 4.99 1.25 1.5
    endloop
  endfacet
  facet normal 0 0 -1
    outer loop
      vertex 4.08999 1.25 1.5
      vertex 3.53999 1.54999 1.5
      vertex 3.93999 1.54999 1.5
    endloop
  endfacet
  facet normal 0 0 -1
    outer loop
      vertex 4.08999 1.25 1.5
      vertex 3.34 1.25 1.5
      vertex 3.53999 1.54999 1.5
    endloop
  endfacet
  facet normal 0 0 -1
    outer loop
      vertex 5.99999 1 1.5
      vertex 3.34 1.25 1.5
      vertex 4.08999 1.25 1.5
    endloop
  endfacet
  facet normal 0 0 -1
    outer loop
      vertex 5.99999 1 1.5
      vertex 2.71999 1.25 1.5
      vertex 3.34 1.25 1.5
    endloop
  endfacet
  facet normal 0 0 -1
    outer loop
      vertex 2.71999 1.25 1.5
      vertex 2.52 1.54999 1.5
      vertex 2.71999 2.45 1.5
    endloop
  endfacet
  facet normal 0 0 -1
    outer loop
      vertex 1.97 1.25 1.5
      vertex 2.52 1.54999 1.5
      vertex 2.71999 1.25 1.5
    endloop
  endfacet
  facet normal -0 0 -1
    outer loop
      vertex 2.52 1.54999 1.5
      vertex 1.97 1.25 1.5
      vertex 2.12 1.54999 1.5
    endloop
  endfacet
  facet normal 0 0 -1
    outer loop
      vertex 5.99999 1 1.5
      vertex 1.97 1.25 1.5
      vertex 2.71999 1.25 1.5
    endloop
  endfacet
  facet normal 0 0 -1
    outer loop
      vertex 5.99999 1 1.5
      vertex 1.06999 1.25 1.5
      vertex 1.97 1.25 1.5
    endloop
  endfacet
  facet normal 0 0 -1
    outer loop
      vertex 1.06999 1.25 1.5
      vertex 0.519991 1.54999 1.5
      vertex 0.919991 1.54999 1.5
    endloop
  endfacet
  facet normal 0 0 -1
    outer loop
      vertex 1.06999 1.25 1.5
      vertex 0.319996 1.25 1.5
      vertex 0.519991 1.54999 1.5
    endloop
  endfacet
  facet normal 0 0 -1
    outer loop
      vertex 5.99999 1 1.5
      vertex 0.319996 1.25 1.5
      vertex 1.06999 1.25 1.5
    endloop
  endfacet
  facet normal 0 0 -1
    outer loop
      vertex 5.99999 1 1.5
      vertex -0.299997 1.25 1.5
      vertex 0.319996 1.25 1.5
    endloop
  endfacet
  facet normal 0 0 -1
    outer loop
      vertex -0.299997 1.25 1.5
      vertex -0.499992 1.54999 1.5
      vertex -0.299997 2.45 1.5
    endloop
  endfacet
  facet normal 0 0 -1
    outer loop
      vertex -1.05 1.25 1.5
      vertex -0.499992 1.54999 1.5
      vertex -0.299997 1.25 1.5
    endloop
  endfacet
  facet normal -0 0 -1
    outer loop
      vertex -0.499992 1.54999 1.5
      vertex -1.05 1.25 1.5
      vertex -0.899992 1.54999 1.5
    endloop
  endfacet
  facet normal 0 0 -1
    outer loop
      vertex -5.99999 1 1.5
      vertex -0.299997 1.25 1.5
      vertex 5.99999 1 1.5
    endloop
  endfacet
  facet normal -0 0 -1
    outer loop
      vertex -0.299997 1.25 1.5
      vertex -5.99999 1 1.5
      vertex -1.05 1.25 1.5
    endloop
  endfacet
  facet normal 0 0 -1
    outer loop
      vertex -1.95 1.25 1.5
      vertex -2.5 1.54999 1.5
      vertex -2.09999 1.54999 1.5
    endloop
  endfacet
  facet normal 0 0 -1
    outer loop
      vertex -1.95 1.25 1.5
      vertex -2.7 1.25 1.5
      vertex -2.5 1.54999 1.5
    endloop
  endfacet
  facet normal -0 0 -1
    outer loop
      vertex -1.05 1.25 1.5
      vertex -5.99999 1 1.5
      vertex -1.95 1.25 1.5
    endloop
  endfacet
  facet normal -0 0 -1
    outer loop
      vertex -1.95 1.25 1.5
      vertex -5.99999 1 1.5
      vertex -2.7 1.25 1.5
    endloop
  endfacet
  facet normal 0 0 -1
    outer loop
      vertex -3.32 1.25 1.5
      vertex -3.51999 1.54999 1.5
      vertex -3.32 2.45 1.5
    endloop
  endfacet
  facet normal 0 0 -1
    outer loop
      vertex -4.07 1.25 1.5
      vertex -3.51999 1.54999 1.5
      vertex -3.32 1.25 1.5
    endloop
  endfacet
  facet normal -0 0 -1
    outer loop
      vertex -3.51999 1.54999 1.5
      vertex -4.07 1.25 1.5
      vertex -3.91999 1.54999 1.5
    endloop
  endfacet
  facet normal -0 0 -1
    outer loop
      vertex -2.7 1.25 1.5
      vertex -5.99999 1 1.5
      vertex -3.32 1.25 1.5
    endloop
  endfacet
  facet normal -0 0 -1
    outer loop
      vertex -3.32 1.25 1.5
      vertex -5.99999 1 1.5
      vertex -4.07 1.25 1.5
    endloop
  endfacet
  facet normal 0 0 -1
    outer loop
      vertex -4.97 1.25 1.5
      vertex -5.51999 1.54999 1.5
      vertex -5.11999 1.54999 1.5
    endloop
  endfacet
  facet normal 0 0 -1
    outer loop
      vertex -4.97 1.25 1.5
      vertex -5.72 1.25 1.5
      vertex -5.51999 1.54999 1.5
    endloop
  endfacet
  facet normal -0 0 -1
    outer loop
      vertex -4.07 1.25 1.5
      vertex -5.99999 1 1.5
      vertex -4.97 1.25 1.5
    endloop
  endfacet
  facet normal -0 0 -1
    outer loop
      vertex -4.97 1.25 1.5
      vertex -5.99999 1 1.5
      vertex -5.72 1.25 1.5
    endloop
  endfacet
  facet normal -0 0 -1
    outer loop
      vertex -5.72 1.25 1.5
      vertex -5.99999 1 1.5
      vertex -5.99999 1.25 1.5
    endloop
  endfacet
  facet normal 0 0 -1
    outer loop
      vertex 4.69 2.45 1.5
      vertex 5.14 1.54999 1.5
      vertex 4.99 1.25 1.5
    endloop
  endfacet
  facet normal 0 0 -1
    outer loop
      vertex 5.14 1.54999 1.5
      vertex 4.69 2.45 1.5
      vertex 4.93999 2.45 1.5
    endloop
  endfacet
  facet normal -0 0 1
    outer loop
      vertex -5.99999 1.25 6.5
      vertex 5.99999 1 6.5
      vertex 5.99999 1.25 6.5
    endloop
  endfacet
  facet normal 0 0 1
    outer loop
      vertex 5.99999 1 6.5
      vertex -5.99999 1.25 6.5
      vertex -5.99999 1 6.5
    endloop
  endfacet
  facet normal 0 1 -0
    outer loop
      vertex -4.07 1.25 1.5
      vertex -4.97 1.25 6.47999
      vertex -4.07 1.25 6.47999
    endloop
  endfacet
  facet normal 0 1 0
    outer loop
      vertex -4.97 1.25 6.47999
      vertex -4.07 1.25 1.5
      vertex -4.97 1.25 1.5
    endloop
  endfacet
  facet normal 0 1 -0
    outer loop
      vertex -2.7 1.25 1.5
      vertex -3.32 1.25 6.47999
      vertex -2.7 1.25 6.47999
    endloop
  endfacet
  facet normal 0 1 0
    outer loop
      vertex -3.32 1.25 6.47999
      vertex -2.7 1.25 1.5
      vertex -3.32 1.25 1.5
    endloop
  endfacet
  facet normal 0 1 -0
    outer loop
      vertex -1.05 1.25 1.5
      vertex -1.95 1.25 6.47999
      vertex -1.05 1.25 6.47999
    endloop
  endfacet
  facet normal 0 1 0
    outer loop
      vertex -1.95 1.25 6.47999
      vertex -1.05 1.25 1.5
      vertex -1.95 1.25 1.5
    endloop
  endfacet
  facet normal 0 1 -0
    outer loop
      vertex 0.319996 1.25 1.5
      vertex -0.299997 1.25 6.47999
      vertex 0.319996 1.25 6.47999
    endloop
  endfacet
  facet normal 0 1 0
    outer loop
      vertex -0.299997 1.25 6.47999
      vertex 0.319996 1.25 1.5
      vertex -0.299997 1.25 1.5
    endloop
  endfacet
  facet normal 0 1 -0
    outer loop
      vertex 1.97 1.25 1.5
      vertex 1.06999 1.25 6.47999
      vertex 1.97 1.25 6.47999
    endloop
  endfacet
  facet normal 0 1 0
    outer loop
      vertex 1.06999 1.25 6.47999
      vertex 1.97 1.25 1.5
      vertex 1.06999 1.25 1.5
    endloop
  endfacet
  facet normal 0 1 -0
    outer loop
      vertex 3.34 1.25 1.5
      vertex 2.71999 1.25 6.47999
      vertex 3.34 1.25 6.47999
    endloop
  endfacet
  facet normal 0 1 0
    outer loop
      vertex 2.71999 1.25 6.47999
      vertex 3.34 1.25 1.5
      vertex 2.71999 1.25 1.5
    endloop
  endfacet
  facet normal 0 1 -0
    outer loop
      vertex 4.99 1.25 1.5
      vertex 4.08999 1.25 6.47999
      vertex 4.99 1.25 6.47999
    endloop
  endfacet
  facet normal 0 1 0
    outer loop
      vertex 4.08999 1.25 6.47999
      vertex 4.99 1.25 1.5
      vertex 4.08999 1.25 1.5
    endloop
  endfacet
  facet normal 0 1 0
    outer loop
      vertex 4.99 1.25 6.47999
      vertex 5.99999 1.25 6.5
      vertex 5.73999 1.25 6.47999
    endloop
  endfacet
  facet normal 0 1 -0
    outer loop
      vertex 5.99999 1.25 1.5
      vertex 5.73999 1.25 6.47999
      vertex 5.99999 1.25 6.5
    endloop
  endfacet
  facet normal 0 1 0
    outer loop
      vertex 5.73999 1.25 6.47999
      vertex 5.99999 1.25 1.5
      vertex 5.73999 1.25 1.5
    endloop
  endfacet
  facet normal 0 1 0
    outer loop
      vertex 4.08999 1.25 6.47999
      vertex 5.99999 1.25 6.5
      vertex 4.99 1.25 6.47999
    endloop
  endfacet
  facet normal 0 1 0
    outer loop
      vertex 5.99999 1.25 6.5
      vertex 4.08999 1.25 6.47999
      vertex -5.99999 1.25 6.5
    endloop
  endfacet
  facet normal 0 1 -0
    outer loop
      vertex 3.34 1.25 6.47999
      vertex -5.99999 1.25 6.5
      vertex 4.08999 1.25 6.47999
    endloop
  endfacet
  facet normal 0 1 -0
    outer loop
      vertex 2.71999 1.25 6.47999
      vertex -5.99999 1.25 6.5
      vertex 3.34 1.25 6.47999
    endloop
  endfacet
  facet normal 0 1 -0
    outer loop
      vertex 1.97 1.25 6.47999
      vertex -5.99999 1.25 6.5
      vertex 2.71999 1.25 6.47999
    endloop
  endfacet
  facet normal 0 1 -0
    outer loop
      vertex 1.06999 1.25 6.47999
      vertex -5.99999 1.25 6.5
      vertex 1.97 1.25 6.47999
    endloop
  endfacet
  facet normal 0 1 -0
    outer loop
      vertex 0.319996 1.25 6.47999
      vertex -5.99999 1.25 6.5
      vertex 1.06999 1.25 6.47999
    endloop
  endfacet
  facet normal 0 1 -0
    outer loop
      vertex -0.299997 1.25 6.47999
      vertex -5.99999 1.25 6.5
      vertex 0.319996 1.25 6.47999
    endloop
  endfacet
  facet normal 0 1 -0
    outer loop
      vertex -1.05 1.25 6.47999
      vertex -5.99999 1.25 6.5
      vertex -0.299997 1.25 6.47999
    endloop
  endfacet
  facet normal 0 1 -0
    outer loop
      vertex -1.95 1.25 6.47999
      vertex -5.99999 1.25 6.5
      vertex -1.05 1.25 6.47999
    endloop
  endfacet
  facet normal 0 1 -0
    outer loop
      vertex -2.7 1.25 6.47999
      vertex -5.99999 1.25 6.5
      vertex -1.95 1.25 6.47999
    endloop
  endfacet
  facet normal 0 1 -0
    outer loop
      vertex -3.32 1.25 6.47999
      vertex -5.99999 1.25 6.5
      vertex -2.7 1.25 6.47999
    endloop
  endfacet
  facet normal 0 1 -0
    outer loop
      vertex -4.07 1.25 6.47999
      vertex -5.99999 1.25 6.5
      vertex -3.32 1.25 6.47999
    endloop
  endfacet
  facet normal 0 1 -0
    outer loop
      vertex -4.97 1.25 6.47999
      vertex -5.99999 1.25 6.5
      vertex -4.07 1.25 6.47999
    endloop
  endfacet
  facet normal 0 1 -0
    outer loop
      vertex -5.72 1.25 6.47999
      vertex -5.99999 1.25 6.5
      vertex -4.97 1.25 6.47999
    endloop
  endfacet
  facet normal 0 1 0
    outer loop
      vertex -5.99999 1.25 1.5
      vertex -5.72 1.25 6.47999
      vertex -5.72 1.25 1.5
    endloop
  endfacet
  facet normal 0 1 0
    outer loop
      vertex -5.72 1.25 6.47999
      vertex -5.99999 1.25 1.5
      vertex -5.99999 1.25 6.5
    endloop
  endfacet
  facet normal 0 0 1
    outer loop
      vertex 0 2.74999 6.47999
      vertex -1.1 2.45 6.47999
      vertex -0.299997 2.45 6.47999
    endloop
  endfacet
  facet normal 0 0 1
    outer loop
      vertex 0 2.74999 6.47999
      vertex -1.34999 2.45 6.47999
      vertex -1.1 2.45 6.47999
    endloop
  endfacet
  facet normal 0 0 1
    outer loop
      vertex 0 2.74999 6.47999
      vertex -1.65 2.45 6.47999
      vertex -1.34999 2.45 6.47999
    endloop
  endfacet
  facet normal -0 0 1
    outer loop
      vertex -2.99999 2.74999 6.47999
      vertex -1.65 2.45 6.47999
      vertex 0 2.74999 6.47999
    endloop
  endfacet
  facet normal 0 0 1
    outer loop
      vertex -1.65 2.45 6.47999
      vertex -2.99999 2.74999 6.47999
      vertex -1.9 2.45 6.47999
    endloop
  endfacet
  facet normal 0 0 1
    outer loop
      vertex -2.7 2.45 6.47999
      vertex -2.99999 2.74999 6.47999
      vertex -2.7 1.25 6.47999
    endloop
  endfacet
  facet normal 0 0 1
    outer loop
      vertex -1.9 2.45 6.47999
      vertex -2.99999 2.74999 6.47999
      vertex -2.7 2.45 6.47999
    endloop
  endfacet
  facet normal -0 0 1
    outer loop
      vertex -0.299997 2.45 6.47999
      vertex -0.299997 1.25 6.47999
      vertex 0 2.74999 6.47999
    endloop
  endfacet
  facet normal -0 0 1
    outer loop
      vertex -0.499992 1.54999 6.47999
      vertex -0.299997 1.25 6.47999
      vertex -0.299997 2.45 6.47999
    endloop
  endfacet
  facet normal 0 0 1
    outer loop
      vertex -1.05 1.25 6.47999
      vertex -0.499992 1.54999 6.47999
      vertex -0.899992 1.54999 6.47999
    endloop
  endfacet
  facet normal 0 0 1
    outer loop
      vertex -0.499992 1.54999 6.47999
      vertex -1.05 1.25 6.47999
      vertex -0.299997 1.25 6.47999
    endloop
  endfacet
  facet normal -0 0 1
    outer loop
      vertex -1.34999 2.45 6.47999
      vertex -0.899992 1.54999 6.47999
      vertex -1.1 2.45 6.47999
    endloop
  endfacet
  facet normal 0 0 1
    outer loop
      vertex -0.899992 1.54999 6.47999
      vertex -1.34999 2.45 6.47999
      vertex -1.05 1.25 6.47999
    endloop
  endfacet
  facet normal 0 0 1
    outer loop
      vertex -2.09999 1.54999 6.47999
      vertex -1.65 2.45 6.47999
      vertex -1.9 2.45 6.47999
    endloop
  endfacet
  facet normal 0 0 1
    outer loop
      vertex -1.65 2.45 6.47999
      vertex -2.09999 1.54999 6.47999
      vertex -1.95 1.25 6.47999
    endloop
  endfacet
  facet normal -0 0 1
    outer loop
      vertex -2.5 1.54999 6.47999
      vertex -1.95 1.25 6.47999
      vertex -2.09999 1.54999 6.47999
    endloop
  endfacet
  facet normal 0 0 1
    outer loop
      vertex -2.5 1.54999 6.47999
      vertex -2.7 1.25 6.47999
      vertex -1.95 1.25 6.47999
    endloop
  endfacet
  facet normal 0 0 1
    outer loop
      vertex -2.7 1.25 6.47999
      vertex -2.5 1.54999 6.47999
      vertex -2.7 2.45 6.47999
    endloop
  endfacet
  facet normal 0.970143 -0.242534 0
    outer loop
      vertex -1.95 1.25 6.47999
      vertex -1.65 2.45 1.5
      vertex -1.65 2.45 6.47999
    endloop
  endfacet
  facet normal 0.970143 -0.242534 0
    outer loop
      vertex -1.65 2.45 1.5
      vertex -1.95 1.25 6.47999
      vertex -1.95 1.25 1.5
    endloop
  endfacet
  facet normal 0 -1 0
    outer loop
      vertex -1.65 2.45 1.5
      vertex -1.34999 2.45 6.47999
      vertex -1.65 2.45 6.47999
    endloop
  endfacet
  facet normal 0 -1 -0
    outer loop
      vertex -1.34999 2.45 6.47999
      vertex -1.65 2.45 1.5
      vertex -1.34999 2.45 1.5
    endloop
  endfacet
  facet normal -0.970143 -0.242534 0
    outer loop
      vertex -1.05 1.25 1.5
      vertex -1.34999 2.45 6.47999
      vertex -1.34999 2.45 1.5
    endloop
  endfacet
  facet normal -0.970143 -0.242534 0
    outer loop
      vertex -1.34999 2.45 6.47999
      vertex -1.05 1.25 1.5
      vertex -1.05 1.25 6.47999
    endloop
  endfacet
  facet normal 0.980581 -0.196115 0
    outer loop
      vertex -0.299997 1.25 6.47999
      vertex 0 2.74999 1.5
      vertex 0 2.74999 6.47999
    endloop
  endfacet
  facet normal 0.980581 -0.196115 0
    outer loop
      vertex 0 2.74999 1.5
      vertex -0.299997 1.25 6.47999
      vertex -0.299997 1.25 1.5
    endloop
  endfacet
  facet normal 0 1 -0
    outer loop
      vertex 0 2.74999 1.5
      vertex -2.99999 2.74999 6.47999
      vertex 0 2.74999 6.47999
    endloop
  endfacet
  facet normal 0 1 0
    outer loop
      vertex -2.99999 2.74999 6.47999
      vertex 0 2.74999 1.5
      vertex -2.99999 2.74999 1.5
    endloop
  endfacet
  facet normal -0.980581 -0.196115 0
    outer loop
      vertex -2.7 1.25 1.5
      vertex -2.99999 2.74999 6.47999
      vertex -2.99999 2.74999 1.5
    endloop
  endfacet
  facet normal -0.980581 -0.196115 0
    outer loop
      vertex -2.99999 2.74999 6.47999
      vertex -2.7 1.25 1.5
      vertex -2.7 1.25 6.47999
    endloop
  endfacet
  facet normal -0.976188 0.216925 0
    outer loop
      vertex -0.499992 1.54999 1.5
      vertex -0.299997 2.45 6.47999
      vertex -0.299997 2.45 1.5
    endloop
  endfacet
  facet normal -0.976188 0.216925 0
    outer loop
      vertex -0.299997 2.45 6.47999
      vertex -0.499992 1.54999 1.5
      vertex -0.499992 1.54999 6.47999
    endloop
  endfacet
  facet normal 0 1 -0
    outer loop
      vertex -0.499992 1.54999 1.5
      vertex -0.899992 1.54999 6.47999
      vertex -0.499992 1.54999 6.47999
    endloop
  endfacet
  facet normal 0 1 0
    outer loop
      vertex -0.899992 1.54999 6.47999
      vertex -0.499992 1.54999 1.5
      vertex -0.899992 1.54999 1.5
    endloop
  endfacet
  facet normal 0.976186 0.216935 0
    outer loop
      vertex -0.899992 1.54999 6.47999
      vertex -1.1 2.45 1.5
      vertex -1.1 2.45 6.47999
    endloop
  endfacet
  facet normal 0.976186 0.216935 0
    outer loop
      vertex -1.1 2.45 1.5
      vertex -0.899992 1.54999 6.47999
      vertex -0.899992 1.54999 1.5
    endloop
  endfacet
  facet normal 0 -1 0
    outer loop
      vertex -1.1 2.45 1.5
      vertex -0.299997 2.45 6.47999
      vertex -1.1 2.45 6.47999
    endloop
  endfacet
  facet normal 0 -1 -0
    outer loop
      vertex -0.299997 2.45 6.47999
      vertex -1.1 2.45 1.5
      vertex -0.299997 2.45 1.5
    endloop
  endfacet
  facet normal -0.976188 0.216925 0
    outer loop
      vertex -2.09999 1.54999 1.5
      vertex -1.9 2.45 6.47999
      vertex -1.9 2.45 1.5
    endloop
  endfacet
  facet normal -0.976188 0.216925 0
    outer loop
      vertex -1.9 2.45 6.47999
      vertex -2.09999 1.54999 1.5
      vertex -2.09999 1.54999 6.47999
    endloop
  endfacet
  facet normal 0 1 -0
    outer loop
      vertex -2.09999 1.54999 1.5
      vertex -2.5 1.54999 6.47999
      vertex -2.09999 1.54999 6.47999
    endloop
  endfacet
  facet normal 0 1 0
    outer loop
      vertex -2.5 1.54999 6.47999
      vertex -2.09999 1.54999 1.5
      vertex -2.5 1.54999 1.5
    endloop
  endfacet
  facet normal 0.976188 0.216925 0
    outer loop
      vertex -2.5 1.54999 6.47999
      vertex -2.7 2.45 1.5
      vertex -2.7 2.45 6.47999
    endloop
  endfacet
  facet normal 0.976188 0.216925 0
    outer loop
      vertex -2.7 2.45 1.5
      vertex -2.5 1.54999 6.47999
      vertex -2.5 1.54999 1.5
    endloop
  endfacet
  facet normal 0 -1 0
    outer loop
      vertex -2.7 2.45 1.5
      vertex -1.9 2.45 6.47999
      vertex -2.7 2.45 6.47999
    endloop
  endfacet
  facet normal 0 -1 -0
    outer loop
      vertex -1.9 2.45 6.47999
      vertex -2.7 2.45 1.5
      vertex -1.9 2.45 1.5
    endloop
  endfacet
  facet normal 0 0 1
    outer loop
      vertex -3.01999 2.74999 6.47999
      vertex -4.12 2.45 6.47999
      vertex -3.32 2.45 6.47999
    endloop
  endfacet
  facet normal 0 0 1
    outer loop
      vertex -3.01999 2.74999 6.47999
      vertex -4.36999 2.45 6.47999
      vertex -4.12 2.45 6.47999
    endloop
  endfacet
  facet normal 0 0 1
    outer loop
      vertex -3.01999 2.74999 6.47999
      vertex -4.66999 2.45 6.47999
      vertex -4.36999 2.45 6.47999
    endloop
  endfacet
  facet normal -0 0 1
    outer loop
      vertex -6.01999 2.74999 6.47999
      vertex -4.66999 2.45 6.47999
      vertex -3.01999 2.74999 6.47999
    endloop
  endfacet
  facet normal 0 0 1
    outer loop
      vertex -4.66999 2.45 6.47999
      vertex -6.01999 2.74999 6.47999
      vertex -4.92 2.45 6.47999
    endloop
  endfacet
  facet normal 0 0 1
    outer loop
      vertex -5.72 2.45 6.47999
      vertex -6.01999 2.74999 6.47999
      vertex -5.72 1.25 6.47999
    endloop
  endfacet
  facet normal 0 0 1
    outer loop
      vertex -4.92 2.45 6.47999
      vertex -6.01999 2.74999 6.47999
      vertex -5.72 2.45 6.47999
    endloop
  endfacet
  facet normal -0 0 1
    outer loop
      vertex -3.32 2.45 6.47999
      vertex -3.32 1.25 6.47999
      vertex -3.01999 2.74999 6.47999
    endloop
  endfacet
  facet normal -0 0 1
    outer loop
      vertex -3.51999 1.54999 6.47999
      vertex -3.32 1.25 6.47999
      vertex -3.32 2.45 6.47999
    endloop
  endfacet
  facet normal 0 0 1
    outer loop
      vertex -4.07 1.25 6.47999
      vertex -3.51999 1.54999 6.47999
      vertex -3.91999 1.54999 6.47999
    endloop
  endfacet
  facet normal 0 0 1
    outer loop
      vertex -3.51999 1.54999 6.47999
      vertex -4.07 1.25 6.47999
      vertex -3.32 1.25 6.47999
    endloop
  endfacet
  facet normal -0 0 1
    outer loop
      vertex -4.36999 2.45 6.47999
      vertex -3.91999 1.54999 6.47999
      vertex -4.12 2.45 6.47999
    endloop
  endfacet
  facet normal 0 0 1
    outer loop
      vertex -3.91999 1.54999 6.47999
      vertex -4.36999 2.45 6.47999
      vertex -4.07 1.25 6.47999
    endloop
  endfacet
  facet normal 0 0 1
    outer loop
      vertex -5.11999 1.54999 6.47999
      vertex -4.66999 2.45 6.47999
      vertex -4.92 2.45 6.47999
    endloop
  endfacet
  facet normal 0 0 1
    outer loop
      vertex -4.66999 2.45 6.47999
      vertex -5.11999 1.54999 6.47999
      vertex -4.97 1.25 6.47999
    endloop
  endfacet
  facet normal -0 0 1
    outer loop
      vertex -5.51999 1.54999 6.47999
      vertex -4.97 1.25 6.47999
      vertex -5.11999 1.54999 6.47999
    endloop
  endfacet
  facet normal 0 0 1
    outer loop
      vertex -5.51999 1.54999 6.47999
      vertex -5.72 1.25 6.47999
      vertex -4.97 1.25 6.47999
    endloop
  endfacet
  facet normal 0 0 1
    outer loop
      vertex -5.72 1.25 6.47999
      vertex -5.51999 1.54999 6.47999
      vertex -5.72 2.45 6.47999
    endloop
  endfacet
  facet normal 0.970141 -0.242541 0
    outer loop
      vertex -4.97 1.25 6.47999
      vertex -4.66999 2.45 1.5
      vertex -4.66999 2.45 6.47999
    endloop
  endfacet
  facet normal 0.970141 -0.242541 0
    outer loop
      vertex -4.66999 2.45 1.5
      vertex -4.97 1.25 6.47999
      vertex -4.97 1.25 1.5
    endloop
  endfacet
  facet normal 0 -1 0
    outer loop
      vertex -4.66999 2.45 1.5
      vertex -4.36999 2.45 6.47999
      vertex -4.66999 2.45 6.47999
    endloop
  endfacet
  facet normal 0 -1 -0
    outer loop
      vertex -4.36999 2.45 6.47999
      vertex -4.66999 2.45 1.5
      vertex -4.36999 2.45 1.5
    endloop
  endfacet
  facet normal -0.970143 -0.242534 0
    outer loop
      vertex -4.07 1.25 1.5
      vertex -4.36999 2.45 6.47999
      vertex -4.36999 2.45 1.5
    endloop
  endfacet
  facet normal -0.970143 -0.242534 0
    outer loop
      vertex -4.36999 2.45 6.47999
      vertex -4.07 1.25 1.5
      vertex -4.07 1.25 6.47999
    endloop
  endfacet
  facet normal 0.98058 -0.196121 0
    outer loop
      vertex -3.32 1.25 6.47999
      vertex -3.01999 2.74999 1.5
      vertex -3.01999 2.74999 6.47999
    endloop
  endfacet
  facet normal 0.98058 -0.196121 0
    outer loop
      vertex -3.01999 2.74999 1.5
      vertex -3.32 1.25 6.47999
      vertex -3.32 1.25 1.5
    endloop
  endfacet
  facet normal 0 1 -0
    outer loop
      vertex -3.01999 2.74999 1.5
      vertex -6.01999 2.74999 6.47999
      vertex -3.01999 2.74999 6.47999
    endloop
  endfacet
  facet normal 0 1 0
    outer loop
      vertex -6.01999 2.74999 6.47999
      vertex -3.01999 2.74999 1.5
      vertex -6.01999 2.74999 1.5
    endloop
  endfacet
  facet normal -0.980581 -0.196115 0
    outer loop
      vertex -5.72 1.25 1.5
      vertex -6.01999 2.74999 6.47999
      vertex -6.01999 2.74999 1.5
    endloop
  endfacet
  facet normal -0.980581 -0.196115 0
    outer loop
      vertex -6.01999 2.74999 6.47999
      vertex -5.72 1.25 1.5
      vertex -5.72 1.25 6.47999
    endloop
  endfacet
  facet normal -0.976188 0.216925 0
    outer loop
      vertex -3.51999 1.54999 1.5
      vertex -3.32 2.45 6.47999
      vertex -3.32 2.45 1.5
    endloop
  endfacet
  facet normal -0.976188 0.216925 0
    outer loop
      vertex -3.32 2.45 6.47999
      vertex -3.51999 1.54999 1.5
      vertex -3.51999 1.54999 6.47999
    endloop
  endfacet
  facet normal 0 1 -0
    outer loop
      vertex -3.51999 1.54999 1.5
      vertex -3.91999 1.54999 6.47999
      vertex -3.51999 1.54999 6.47999
    endloop
  endfacet
  facet normal 0 1 0
    outer loop
      vertex -3.91999 1.54999 6.47999
      vertex -3.51999 1.54999 1.5
      vertex -3.91999 1.54999 1.5
    endloop
  endfacet
  facet normal 0.976186 0.216935 0
    outer loop
      vertex -3.91999 1.54999 6.47999
      vertex -4.12 2.45 1.5
      vertex -4.12 2.45 6.47999
    endloop
  endfacet
  facet normal 0.976186 0.216935 0
    outer loop
      vertex -4.12 2.45 1.5
      vertex -3.91999 1.54999 6.47999
      vertex -3.91999 1.54999 1.5
    endloop
  endfacet
  facet normal 0 -1 0
    outer loop
      vertex -4.12 2.45 1.5
      vertex -3.32 2.45 6.47999
      vertex -4.12 2.45 6.47999
    endloop
  endfacet
  facet normal 0 -1 -0
    outer loop
      vertex -3.32 2.45 6.47999
      vertex -4.12 2.45 1.5
      vertex -3.32 2.45 1.5
    endloop
  endfacet
  facet normal -0.976188 0.216925 0
    outer loop
      vertex -5.11999 1.54999 1.5
      vertex -4.92 2.45 6.47999
      vertex -4.92 2.45 1.5
    endloop
  endfacet
  facet normal -0.976188 0.216925 0
    outer loop
      vertex -4.92 2.45 6.47999
      vertex -5.11999 1.54999 1.5
      vertex -5.11999 1.54999 6.47999
    endloop
  endfacet
  facet normal 0 1 -0
    outer loop
      vertex -5.11999 1.54999 1.5
      vertex -5.51999 1.54999 6.47999
      vertex -5.11999 1.54999 6.47999
    endloop
  endfacet
  facet normal 0 1 0
    outer loop
      vertex -5.51999 1.54999 6.47999
      vertex -5.11999 1.54999 1.5
      vertex -5.51999 1.54999 1.5
    endloop
  endfacet
  facet normal 0.976186 0.216935 0
    outer loop
      vertex -5.51999 1.54999 6.47999
      vertex -5.72 2.45 1.5
      vertex -5.72 2.45 6.47999
    endloop
  endfacet
  facet normal 0.976186 0.216935 0
    outer loop
      vertex -5.72 2.45 1.5
      vertex -5.51999 1.54999 6.47999
      vertex -5.51999 1.54999 1.5
    endloop
  endfacet
  facet normal 0 -1 0
    outer loop
      vertex -5.72 2.45 1.5
      vertex -4.92 2.45 6.47999
      vertex -5.72 2.45 6.47999
    endloop
  endfacet
  facet normal 0 -1 -0
    outer loop
      vertex -4.92 2.45 6.47999
      vertex -5.72 2.45 1.5
      vertex -4.92 2.45 1.5
    endloop
  endfacet
  facet normal 0 0 1
    outer loop
      vertex 3.01999 2.74999 6.47999
      vertex 1.91999 2.45 6.47999
      vertex 2.71999 2.45 6.47999
    endloop
  endfacet
  facet normal 0 0 1
    outer loop
      vertex 3.01999 2.74999 6.47999
      vertex 1.67 2.45 6.47999
      vertex 1.91999 2.45 6.47999
    endloop
  endfacet
  facet normal 0 0 1
    outer loop
      vertex 3.01999 2.74999 6.47999
      vertex 1.36999 2.45 6.47999
      vertex 1.67 2.45 6.47999
    endloop
  endfacet
  facet normal -0 0 1
    outer loop
      vertex 0.0199986 2.74999 6.47999
      vertex 1.36999 2.45 6.47999
      vertex 3.01999 2.74999 6.47999
    endloop
  endfacet
  facet normal 0 0 1
    outer loop
      vertex 1.36999 2.45 6.47999
      vertex 0.0199986 2.74999 6.47999
      vertex 1.12 2.45 6.47999
    endloop
  endfacet
  facet normal 0 0 1
    outer loop
      vertex 0.319996 2.45 6.47999
      vertex 0.0199986 2.74999 6.47999
      vertex 0.319996 1.25 6.47999
    endloop
  endfacet
  facet normal 0 0 1
    outer loop
      vertex 1.12 2.45 6.47999
      vertex 0.0199986 2.74999 6.47999
      vertex 0.319996 2.45 6.47999
    endloop
  endfacet
  facet normal -0 0 1
    outer loop
      vertex 2.71999 2.45 6.47999
      vertex 2.71999 1.25 6.47999
      vertex 3.01999 2.74999 6.47999
    endloop
  endfacet
  facet normal -0 0 1
    outer loop
      vertex 2.52 1.54999 6.47999
      vertex 2.71999 1.25 6.47999
      vertex 2.71999 2.45 6.47999
    endloop
  endfacet
  facet normal 0 0 1
    outer loop
      vertex 1.97 1.25 6.47999
      vertex 2.52 1.54999 6.47999
      vertex 2.12 1.54999 6.47999
    endloop
  endfacet
  facet normal 0 0 1
    outer loop
      vertex 2.52 1.54999 6.47999
      vertex 1.97 1.25 6.47999
      vertex 2.71999 1.25 6.47999
    endloop
  endfacet
  facet normal -0 0 1
    outer loop
      vertex 1.67 2.45 6.47999
      vertex 2.12 1.54999 6.47999
      vertex 1.91999 2.45 6.47999
    endloop
  endfacet
  facet normal 0 0 1
    outer loop
      vertex 2.12 1.54999 6.47999
      vertex 1.67 2.45 6.47999
      vertex 1.97 1.25 6.47999
    endloop
  endfacet
  facet normal 0 0 1
    outer loop
      vertex 0.919991 1.54999 6.47999
      vertex 1.36999 2.45 6.47999
      vertex 1.12 2.45 6.47999
    endloop
  endfacet
  facet normal 0 0 1
    outer loop
      vertex 1.36999 2.45 6.47999
      vertex 0.919991 1.54999 6.47999
      vertex 1.06999 1.25 6.47999
    endloop
  endfacet
  facet normal -0 0 1
    outer loop
      vertex 0.519991 1.54999 6.47999
      vertex 1.06999 1.25 6.47999
      vertex 0.919991 1.54999 6.47999
    endloop
  endfacet
  facet normal 0 0 1
    outer loop
      vertex 0.519991 1.54999 6.47999
      vertex 0.319996 1.25 6.47999
      vertex 1.06999 1.25 6.47999
    endloop
  endfacet
  facet normal 0 0 1
    outer loop
      vertex 0.319996 1.25 6.47999
      vertex 0.519991 1.54999 6.47999
      vertex 0.319996 2.45 6.47999
    endloop
  endfacet
  facet normal 0.970143 -0.242534 0
    outer loop
      vertex 1.06999 1.25 6.47999
      vertex 1.36999 2.45 1.5
      vertex 1.36999 2.45 6.47999
    endloop
  endfacet
  facet normal 0.970143 -0.242534 0
    outer loop
      vertex 1.36999 2.45 1.5
      vertex 1.06999 1.25 6.47999
      vertex 1.06999 1.25 1.5
    endloop
  endfacet
  facet normal 0 -1 0
    outer loop
      vertex 1.36999 2.45 1.5
      vertex 1.67 2.45 6.47999
      vertex 1.36999 2.45 6.47999
    endloop
  endfacet
  facet normal 0 -1 -0
    outer loop
      vertex 1.67 2.45 6.47999
      vertex 1.36999 2.45 1.5
      vertex 1.67 2.45 1.5
    endloop
  endfacet
  facet normal -0.970143 -0.242534 0
    outer loop
      vertex 1.97 1.25 1.5
      vertex 1.67 2.45 6.47999
      vertex 1.67 2.45 1.5
    endloop
  endfacet
  facet normal -0.970143 -0.242534 0
    outer loop
      vertex 1.67 2.45 6.47999
      vertex 1.97 1.25 1.5
      vertex 1.97 1.25 6.47999
    endloop
  endfacet
  facet normal 0.980581 -0.196115 0
    outer loop
      vertex 2.71999 1.25 6.47999
      vertex 3.01999 2.74999 1.5
      vertex 3.01999 2.74999 6.47999
    endloop
  endfacet
  facet normal 0.980581 -0.196115 0
    outer loop
      vertex 3.01999 2.74999 1.5
      vertex 2.71999 1.25 6.47999
      vertex 2.71999 1.25 1.5
    endloop
  endfacet
  facet normal 0 1 -0
    outer loop
      vertex 3.01999 2.74999 1.5
      vertex 0.0199986 2.74999 6.47999
      vertex 3.01999 2.74999 6.47999
    endloop
  endfacet
  facet normal 0 1 0
    outer loop
      vertex 0.0199986 2.74999 6.47999
      vertex 3.01999 2.74999 1.5
      vertex 0.0199986 2.74999 1.5
    endloop
  endfacet
  facet normal -0.980581 -0.196115 0
    outer loop
      vertex 0.319996 1.25 1.5
      vertex 0.0199986 2.74999 6.47999
      vertex 0.0199986 2.74999 1.5
    endloop
  endfacet
  facet normal -0.980581 -0.196115 0
    outer loop
      vertex 0.0199986 2.74999 6.47999
      vertex 0.319996 1.25 1.5
      vertex 0.319996 1.25 6.47999
    endloop
  endfacet
  facet normal -0.976188 0.216925 0
    outer loop
      vertex 2.52 1.54999 1.5
      vertex 2.71999 2.45 6.47999
      vertex 2.71999 2.45 1.5
    endloop
  endfacet
  facet normal -0.976188 0.216925 0
    outer loop
      vertex 2.71999 2.45 6.47999
      vertex 2.52 1.54999 1.5
      vertex 2.52 1.54999 6.47999
    endloop
  endfacet
  facet normal 0 1 -0
    outer loop
      vertex 2.52 1.54999 1.5
      vertex 2.12 1.54999 6.47999
      vertex 2.52 1.54999 6.47999
    endloop
  endfacet
  facet normal 0 1 0
    outer loop
      vertex 2.12 1.54999 6.47999
      vertex 2.52 1.54999 1.5
      vertex 2.12 1.54999 1.5
    endloop
  endfacet
  facet normal 0.976186 0.216935 0
    outer loop
      vertex 2.12 1.54999 6.47999
      vertex 1.91999 2.45 1.5
      vertex 1.91999 2.45 6.47999
    endloop
  endfacet
  facet normal 0.976186 0.216935 0
    outer loop
      vertex 1.91999 2.45 1.5
      vertex 2.12 1.54999 6.47999
      vertex 2.12 1.54999 1.5
    endloop
  endfacet
  facet normal 0 -1 0
    outer loop
      vertex 1.91999 2.45 1.5
      vertex 2.71999 2.45 6.47999
      vertex 1.91999 2.45 6.47999
    endloop
  endfacet
  facet normal 0 -1 -0
    outer loop
      vertex 2.71999 2.45 6.47999
      vertex 1.91999 2.45 1.5
      vertex 2.71999 2.45 1.5
    endloop
  endfacet
  facet normal -0.976186 0.216935 0
    outer loop
      vertex 0.919991 1.54999 1.5
      vertex 1.12 2.45 6.47999
      vertex 1.12 2.45 1.5
    endloop
  endfacet
  facet normal -0.976186 0.216935 0
    outer loop
      vertex 1.12 2.45 6.47999
      vertex 0.919991 1.54999 1.5
      vertex 0.919991 1.54999 6.47999
    endloop
  endfacet
  facet normal 0 1 -0
    outer loop
      vertex 0.919991 1.54999 1.5
      vertex 0.519991 1.54999 6.47999
      vertex 0.919991 1.54999 6.47999
    endloop
  endfacet
  facet normal 0 1 0
    outer loop
      vertex 0.519991 1.54999 6.47999
      vertex 0.919991 1.54999 1.5
      vertex 0.519991 1.54999 1.5
    endloop
  endfacet
  facet normal 0.976188 0.216925 0
    outer loop
      vertex 0.519991 1.54999 6.47999
      vertex 0.319996 2.45 1.5
      vertex 0.319996 2.45 6.47999
    endloop
  endfacet
  facet normal 0.976188 0.216925 0
    outer loop
      vertex 0.319996 2.45 1.5
      vertex 0.519991 1.54999 6.47999
      vertex 0.519991 1.54999 1.5
    endloop
  endfacet
  facet normal 0 -1 0
    outer loop
      vertex 0.319996 2.45 1.5
      vertex 1.12 2.45 6.47999
      vertex 0.319996 2.45 6.47999
    endloop
  endfacet
  facet normal 0 -1 -0
    outer loop
      vertex 1.12 2.45 6.47999
      vertex 0.319996 2.45 1.5
      vertex 1.12 2.45 1.5
    endloop
  endfacet
  facet normal 0 0 1
    outer loop
      vertex 6.03999 2.74999 6.47999
      vertex 4.93999 2.45 6.47999
      vertex 5.73999 2.45 6.47999
    endloop
  endfacet
  facet normal 0 0 1
    outer loop
      vertex 6.03999 2.74999 6.47999
      vertex 4.69 2.45 6.47999
      vertex 4.93999 2.45 6.47999
    endloop
  endfacet
  facet normal 0 0 1
    outer loop
      vertex 6.03999 2.74999 6.47999
      vertex 4.38999 2.45 6.47999
      vertex 4.69 2.45 6.47999
    endloop
  endfacet
  facet normal -0 0 1
    outer loop
      vertex 3.04 2.74999 6.47999
      vertex 4.38999 2.45 6.47999
      vertex 6.03999 2.74999 6.47999
    endloop
  endfacet
  facet normal 0 0 1
    outer loop
      vertex 4.38999 2.45 6.47999
      vertex 3.04 2.74999 6.47999
      vertex 4.14 2.45 6.47999
    endloop
  endfacet
  facet normal 0 0 1
    outer loop
      vertex 3.34 2.45 6.47999
      vertex 3.04 2.74999 6.47999
      vertex 3.34 1.25 6.47999
    endloop
  endfacet
  facet normal 0 0 1
    outer loop
      vertex 4.14 2.45 6.47999
      vertex 3.04 2.74999 6.47999
      vertex 3.34 2.45 6.47999
    endloop
  endfacet
  facet normal -0 0 1
    outer loop
      vertex 5.73999 2.45 6.47999
      vertex 5.73999 1.25 6.47999
      vertex 6.03999 2.74999 6.47999
    endloop
  endfacet
  facet normal -0 0 1
    outer loop
      vertex 5.54 1.54999 6.47999
      vertex 5.73999 1.25 6.47999
      vertex 5.73999 2.45 6.47999
    endloop
  endfacet
  facet normal 0 0 1
    outer loop
      vertex 4.99 1.25 6.47999
      vertex 5.54 1.54999 6.47999
      vertex 5.14 1.54999 6.47999
    endloop
  endfacet
  facet normal 0 0 1
    outer loop
      vertex 5.54 1.54999 6.47999
      vertex 4.99 1.25 6.47999
      vertex 5.73999 1.25 6.47999
    endloop
  endfacet
  facet normal -0 0 1
    outer loop
      vertex 4.69 2.45 6.47999
      vertex 5.14 1.54999 6.47999
      vertex 4.93999 2.45 6.47999
    endloop
  endfacet
  facet normal 0 0 1
    outer loop
      vertex 5.14 1.54999 6.47999
      vertex 4.69 2.45 6.47999
      vertex 4.99 1.25 6.47999
    endloop
  endfacet
  facet normal 0 0 1
    outer loop
      vertex 3.93999 1.54999 6.47999
      vertex 4.38999 2.45 6.47999
      vertex 4.14 2.45 6.47999
    endloop
  endfacet
  facet normal 0 0 1
    outer loop
      vertex 4.38999 2.45 6.47999
      vertex 3.93999 1.54999 6.47999
      vertex 4.08999 1.25 6.47999
    endloop
  endfacet
  facet normal -0 0 1
    outer loop
      vertex 3.53999 1.54999 6.47999
      vertex 4.08999 1.25 6.47999
      vertex 3.93999 1.54999 6.47999
    endloop
  endfacet
  facet normal 0 0 1
    outer loop
      vertex 3.53999 1.54999 6.47999
      vertex 3.34 1.25 6.47999
      vertex 4.08999 1.25 6.47999
    endloop
  endfacet
  facet normal 0 0 1
    outer loop
      vertex 3.34 1.25 6.47999
      vertex 3.53999 1.54999 6.47999
      vertex 3.34 2.45 6.47999
    endloop
  endfacet
  facet normal 0.970143 -0.242534 0
    outer loop
      vertex 4.08999 1.25 6.47999
      vertex 4.38999 2.45 1.5
      vertex 4.38999 2.45 6.47999
    endloop
  endfacet
  facet normal 0.970143 -0.242534 0
    outer loop
      vertex 4.38999 2.45 1.5
      vertex 4.08999 1.25 6.47999
      vertex 4.08999 1.25 1.5
    endloop
  endfacet
  facet normal 0 -1 0
    outer loop
      vertex 4.38999 2.45 1.5
      vertex 4.69 2.45 6.47999
      vertex 4.38999 2.45 6.47999
    endloop
  endfacet
  facet normal 0 -1 -0
    outer loop
      vertex 4.69 2.45 6.47999
      vertex 4.38999 2.45 1.5
      vertex 4.69 2.45 1.5
    endloop
  endfacet
  facet normal -0.970143 -0.242534 0
    outer loop
      vertex 4.99 1.25 1.5
      vertex 4.69 2.45 6.47999
      vertex 4.69 2.45 1.5
    endloop
  endfacet
  facet normal -0.970143 -0.242534 0
    outer loop
      vertex 4.69 2.45 6.47999
      vertex 4.99 1.25 1.5
      vertex 4.99 1.25 6.47999
    endloop
  endfacet
  facet normal 0.980581 -0.196115 0
    outer loop
      vertex 5.73999 1.25 6.47999
      vertex 6.03999 2.74999 1.5
      vertex 6.03999 2.74999 6.47999
    endloop
  endfacet
  facet normal 0.980581 -0.196115 0
    outer loop
      vertex 6.03999 2.74999 1.5
      vertex 5.73999 1.25 6.47999
      vertex 5.73999 1.25 1.5
    endloop
  endfacet
  facet normal 0 1 -0
    outer loop
      vertex 6.03999 2.74999 1.5
      vertex 3.04 2.74999 6.47999
      vertex 6.03999 2.74999 6.47999
    endloop
  endfacet
  facet normal 0 1 0
    outer loop
      vertex 3.04 2.74999 6.47999
      vertex 6.03999 2.74999 1.5
      vertex 3.04 2.74999 1.5
    endloop
  endfacet
  facet normal -0.980581 -0.196115 0
    outer loop
      vertex 3.34 1.25 1.5
      vertex 3.04 2.74999 6.47999
      vertex 3.04 2.74999 1.5
    endloop
  endfacet
  facet normal -0.980581 -0.196115 0
    outer loop
      vertex 3.04 2.74999 6.47999
      vertex 3.34 1.25 1.5
      vertex 3.34 1.25 6.47999
    endloop
  endfacet
  facet normal -0.976188 0.216925 0
    outer loop
      vertex 5.54 1.54999 1.5
      vertex 5.73999 2.45 6.47999
      vertex 5.73999 2.45 1.5
    endloop
  endfacet
  facet normal -0.976188 0.216925 0
    outer loop
      vertex 5.73999 2.45 6.47999
      vertex 5.54 1.54999 1.5
      vertex 5.54 1.54999 6.47999
    endloop
  endfacet
  facet normal 0 1 -0
    outer loop
      vertex 5.54 1.54999 1.5
      vertex 5.14 1.54999 6.47999
      vertex 5.54 1.54999 6.47999
    endloop
  endfacet
  facet normal 0 1 0
    outer loop
      vertex 5.14 1.54999 6.47999
      vertex 5.54 1.54999 1.5
      vertex 5.14 1.54999 1.5
    endloop
  endfacet
  facet normal 0.976186 0.216935 0
    outer loop
      vertex 5.14 1.54999 6.47999
      vertex 4.93999 2.45 1.5
      vertex 4.93999 2.45 6.47999
    endloop
  endfacet
  facet normal 0.976186 0.216935 0
    outer loop
      vertex 4.93999 2.45 1.5
      vertex 5.14 1.54999 6.47999
      vertex 5.14 1.54999 1.5
    endloop
  endfacet
  facet normal 0 -1 0
    outer loop
      vertex 4.93999 2.45 1.5
      vertex 5.73999 2.45 6.47999
      vertex 4.93999 2.45 6.47999
    endloop
  endfacet
  facet normal 0 -1 -0
    outer loop
      vertex 5.73999 2.45 6.47999
      vertex 4.93999 2.45 1.5
      vertex 5.73999 2.45 1.5
    endloop
  endfacet
  facet normal -0.976186 0.216935 0
    outer loop
      vertex 3.93999 1.54999 1.5
      vertex 4.14 2.45 6.47999
      vertex 4.14 2.45 1.5
    endloop
  endfacet
  facet normal -0.976186 0.216935 0
    outer loop
      vertex 4.14 2.45 6.47999
      vertex 3.93999 1.54999 1.5
      vertex 3.93999 1.54999 6.47999
    endloop
  endfacet
  facet normal 0 1 -0
    outer loop
      vertex 3.93999 1.54999 1.5
      vertex 3.53999 1.54999 6.47999
      vertex 3.93999 1.54999 6.47999
    endloop
  endfacet
  facet normal 0 1 0
    outer loop
      vertex 3.53999 1.54999 6.47999
      vertex 3.93999 1.54999 1.5
      vertex 3.53999 1.54999 1.5
    endloop
  endfacet
  facet normal 0.976188 0.216925 0
    outer loop
      vertex 3.53999 1.54999 6.47999
      vertex 3.34 2.45 1.5
      vertex 3.34 2.45 6.47999
    endloop
  endfacet
  facet normal 0.976188 0.216925 0
    outer loop
      vertex 3.34 2.45 1.5
      vertex 3.53999 1.54999 6.47999
      vertex 3.53999 1.54999 1.5
    endloop
  endfacet
  facet normal 0 -1 0
    outer loop
      vertex 3.34 2.45 1.5
      vertex 4.14 2.45 6.47999
      vertex 3.34 2.45 6.47999
    endloop
  endfacet
  facet normal 0 -1 -0
    outer loop
      vertex 4.14 2.45 6.47999
      vertex 3.34 2.45 1.5
      vertex 4.14 2.45 1.5
    endloop
  endfacet
  facet normal 0 0 -1
    outer loop
      vertex -5.99999 -9 6.29999
      vertex -4.21498 -6.24991 6.29999
      vertex -5.48 -9 6.29999
    endloop
  endfacet
  facet normal 0 0 -1
    outer loop
      vertex -5.99999 -4 6.29999
      vertex -4.21498 -6.24991 6.29999
      vertex -5.99999 -9 6.29999
    endloop
  endfacet
  facet normal 0 0 -1
    outer loop
      vertex -3.98998 -5.87491 6.29999
      vertex -5.99999 -4 6.29999
      vertex -2.67753 -4 6.29999
    endloop
  endfacet
  facet normal 0 0 -1
    outer loop
      vertex -4.21498 -6.24991 6.29999
      vertex -5.99999 -4 6.29999
      vertex -3.98998 -5.87491 6.29999
    endloop
  endfacet
  facet normal 0 0 -1
    outer loop
      vertex 4.21498 -6.24991 6.29999
      vertex 5.99999 -9 6.29999
      vertex 5.48 -9 6.29999
    endloop
  endfacet
  facet normal 0 0 -1
    outer loop
      vertex 5.99999 -9 6.29999
      vertex 4.21498 -6.24991 6.29999
      vertex 5.99999 -4 6.29999
    endloop
  endfacet
  facet normal 0 0 -1
    outer loop
      vertex 3.98998 -5.87491 6.29999
      vertex 5.99999 -4 6.29999
      vertex 4.21498 -6.24991 6.29999
    endloop
  endfacet
  facet normal -0 0 -1
    outer loop
      vertex 5.99999 -4 6.29999
      vertex 3.98998 -5.87491 6.29999
      vertex 2.67753 -4 6.29999
    endloop
  endfacet
  facet normal 0 0 -1
    outer loop
      vertex 0.999999 -9 6.29999
      vertex 0 -6.0402 6.29999
      vertex 1.97989 -8.0201 6.29999
    endloop
  endfacet
  facet normal 0 0 -1
    outer loop
      vertex -0.999999 -9 6.29999
      vertex 0 -6.0402 6.29999
      vertex 0.999999 -9 6.29999
    endloop
  endfacet
  facet normal 0 0 -1
    outer loop
      vertex 0 -6.0402 6.29999
      vertex -0.999999 -9 6.29999
      vertex -1.97989 -8.0201 6.29999
    endloop
  endfacet
  facet normal 0 -1 0
    outer loop
      vertex -5.99999 -9 6.55
      vertex -5.58 -9 6.45
      vertex -5.58 -9 6.55
    endloop
  endfacet
  facet normal 0 -1 0
    outer loop
      vertex -5.99999 -9 6.29999
      vertex -5.58 -9 6.45
      vertex -5.99999 -9 6.55
    endloop
  endfacet
  facet normal 0 -1 -0
    outer loop
      vertex -5.58 -9 6.45
      vertex -5.99999 -9 6.29999
      vertex -5.48 -9 6.29999
    endloop
  endfacet
  facet normal 0 -1 0
    outer loop
      vertex 5.58 -9 6.45
      vertex 5.99999 -9 6.55
      vertex 5.58 -9 6.55
    endloop
  endfacet
  facet normal 0 -1 0
    outer loop
      vertex 5.99999 -9 6.29999
      vertex 5.58 -9 6.45
      vertex 5.48 -9 6.29999
    endloop
  endfacet
  facet normal 0 -1 0
    outer loop
      vertex 5.58 -9 6.45
      vertex 5.99999 -9 6.29999
      vertex 5.99999 -9 6.55
    endloop
  endfacet
  facet normal 0 -1 0
    outer loop
      vertex -0.999999 -9 6.29999
      vertex 0.999999 -9 6.55
      vertex -0.999999 -9 6.55
    endloop
  endfacet
  facet normal 0 -1 -0
    outer loop
      vertex 0.999999 -9 6.55
      vertex -0.999999 -9 6.29999
      vertex 0.999999 -9 6.29999
    endloop
  endfacet
  facet normal 0 1 0
    outer loop
      vertex -5.99999 -4 6.29999
      vertex -2.67753 -4 6.3
      vertex -2.67753 -4 6.29999
    endloop
  endfacet
  facet normal 0 1 0
    outer loop
      vertex -2.67753 -4 6.3
      vertex -5.99999 -4 6.29999
      vertex -5.99999 -4 6.3
    endloop
  endfacet
  facet normal 0 1 -0
    outer loop
      vertex 5.99999 -4 6.29999
      vertex 2.67753 -4 6.3
      vertex 5.99999 -4 6.3
    endloop
  endfacet
  facet normal 0 1 0
    outer loop
      vertex 2.67753 -4 6.3
      vertex 5.99999 -4 6.29999
      vertex 2.67753 -4 6.29999
    endloop
  endfacet
endsolid OpenSCAD_Model
